<?xml version="1.0" encoding="utf-8"?>
<!-- Generator: Adobe Adobe Illustrator 29.2.0, SVG Export Plug-In . SVG Version: 6.00 Build 0)  -->
<svg version="1.1" id="Layer_1" xmlns="http://www.w3.org/2000/svg" xmlns:xlink="http://www.w3.org/1999/xlink" x="0px" y="0px"
	 width="1280px" height="720px" viewBox="0 0 1280 720" style="enable-background:new 0 0 1280 720;" xml:space="preserve">
<style type="text/css">
	.st0{opacity:0.6;fill:#FF2A0C;}
	.st1{fill:none;}
</style>
<g>
	<path class="st0" d="M475.37,263.67l-2.35-6.44h-16.69l-2.35,6.44h-8.74l14.45-37.35h9.97l14.39,37.35H475.37z M464.67,233.21
		l-6.22,17.14h12.38L464.67,233.21z"/>
	<path class="st0" d="M488.58,245.03c0-11.48,8.68-19.32,19.6-19.32c8.51,0,13.27,4.48,15.9,9.13l-6.83,3.36
		c-1.57-3.02-4.93-5.43-9.07-5.43c-6.5,0-11.42,5.21-11.42,12.26s4.93,12.26,11.42,12.26c4.14,0,7.5-2.35,9.07-5.43l6.83,3.3
		c-2.69,4.65-7.39,9.18-15.9,9.18C497.26,264.35,488.58,256.51,488.58,245.03z"/>
	<path class="st0" d="M565.98,258.24l2.74,3.19l-5.54,4.54l-2.97-3.53c-2.63,1.23-5.66,1.9-8.9,1.9c-11.26,0-19.49-8.06-19.49-19.32
		s8.23-19.32,19.49-19.32c11.31,0,19.54,8.06,19.54,19.32C570.85,250.29,569.06,254.88,565.98,258.24z M555.22,256.62l-4.26-4.98
		l5.54-4.48l4.26,4.98c1.23-1.96,1.9-4.42,1.9-7.11c0-7-4.48-12.26-11.37-12.26c-6.89,0-11.31,5.26-11.31,12.26
		c0,6.94,4.42,12.26,11.31,12.26C552.7,257.29,554.05,257.07,555.22,256.62z"/>
	<path class="st0" d="M581.21,226.32h8.06v22.18c0,5.21,2.86,8.79,8.68,8.79c5.71,0,8.57-3.58,8.57-8.79v-22.18h8.06v22.4
		c0,9.3-5.32,15.62-16.63,15.62c-11.42,0-16.74-6.38-16.74-15.57V226.32z"/>
	<path class="st0" d="M626.74,263.67v-37.35h7.95v37.35H626.74z"/>
	<path class="st0" d="M667.95,263.67l-7.34-13.38h-5.82v13.38h-7.95v-37.35h17.47c7.78,0,12.54,5.1,12.54,12.04
		c0,6.61-4.14,10.14-8.18,11.09l8.4,14.22H667.95z M663.14,233.15h-8.34v10.3h8.34c3.19,0,5.6-2.02,5.6-5.15
		C668.74,235.17,666.33,233.15,663.14,233.15z"/>
	<path class="st0" d="M687.61,263.67v-37.35h26.43v6.83h-18.48v8.12h18.09v6.83h-18.09v8.68h18.48v6.89H687.61z"/>
	<path class="st0" d="M725.01,263.67v-37.35h14.73c11.7,0,19.82,7.45,19.82,18.7s-8.12,18.65-19.82,18.65H725.01z M732.97,256.67
		h6.78c7.39,0,11.7-5.32,11.7-11.65c0-6.61-4.03-11.7-11.7-11.7h-6.78V256.67z"/>
</g>
<rect x="165.05" y="126.02" class="st1" width="14.97" height="0.28"/>
</svg>
