<svg width="1286" height="466" viewBox="0 0 1286 466" fill="none" xmlns="http://www.w3.org/2000/svg">
<g filter="url(#filter0_g_276_917)">
<circle cx="92" cy="92" r="92" transform="matrix(-1 0 0 1 1081 141)" fill="#5C4259" style="fill:#5C4259;fill:color(display-p3 0.3627 0.2573 0.3504);fill-opacity:1;"/>
</g>
<path d="M734.138 254H728.756C725.376 254 722.854 253.142 721.19 251.426C719.578 249.71 718.772 247.292 718.772 244.172V196.28H728.756V246.044H734.138V254ZM773.836 254V247.214H773.446C772.77 249.242 771.548 251.036 769.78 252.596C768.012 254.156 765.438 254.936 762.058 254.936C757.898 254.936 754.674 253.558 752.386 250.802C750.15 247.994 749.032 244.068 749.032 239.024V213.284H759.016V238.01C759.016 240.818 759.562 242.976 760.654 244.484C761.746 245.94 763.488 246.668 765.88 246.668C767.18 246.668 768.428 246.434 769.624 245.966C770.872 245.498 771.886 244.796 772.666 243.86C773.446 242.872 773.836 241.65 773.836 240.194V213.284H783.82V254H773.836ZM813.139 254H803.155V213.284H813.139V220.07H813.529C814.361 217.886 815.661 216.066 817.429 214.61C819.249 213.102 821.745 212.348 824.917 212.348C829.077 212.348 832.275 213.752 834.511 216.56C836.799 219.316 837.943 223.216 837.943 228.26V254H827.959V229.274C827.959 226.414 827.439 224.256 826.399 222.8C825.359 221.292 823.643 220.538 821.251 220.538C819.899 220.538 818.599 220.798 817.351 221.318C816.103 221.786 815.089 222.514 814.309 223.502C813.529 224.438 813.139 225.634 813.139 227.09V254ZM892.301 254H886.763C885.255 254 883.903 253.662 882.707 252.986C881.563 252.258 880.653 251.218 879.977 249.866C879.353 248.514 879.041 246.928 879.041 245.108V244.25L881.537 246.98H878.729C878.053 249.58 876.649 251.556 874.517 252.908C872.437 254.26 869.889 254.936 866.873 254.936C862.713 254.936 859.515 253.844 857.279 251.66C855.043 249.424 853.925 246.512 853.925 242.924C853.925 240.116 854.601 237.802 855.953 235.982C857.357 234.162 859.359 232.784 861.959 231.848C864.559 230.912 867.679 230.444 871.319 230.444H878.261V227.48C878.261 225.244 877.663 223.502 876.467 222.254C875.271 220.954 873.347 220.304 870.695 220.304C868.355 220.304 866.457 220.824 865.001 221.864C863.597 222.852 862.401 224.048 861.413 225.452L855.485 220.148C856.993 217.808 858.995 215.936 861.491 214.532C863.987 213.076 867.289 212.348 871.397 212.348C876.857 212.348 881.017 213.622 883.877 216.17C886.789 218.666 888.245 222.228 888.245 226.856V246.044H892.301V254ZM878.261 236.45H871.865C869.265 236.45 867.315 236.892 866.015 237.776C864.715 238.608 864.065 239.83 864.065 241.442V242.768C864.065 244.38 864.611 245.602 865.703 246.434C866.795 247.266 868.303 247.682 870.227 247.682C871.735 247.682 873.087 247.474 874.283 247.058C875.479 246.59 876.441 245.914 877.169 245.03C877.897 244.146 878.261 243.08 878.261 241.832V236.45Z" fill="#5C4259" style="fill:#5C4259;fill:color(display-p3 0.3627 0.2573 0.3504);fill-opacity:1;"/>
<path d="M921.129 254.936C917.437 254.936 914.317 254.234 911.769 252.83C909.221 251.374 907.037 249.45 905.217 247.058L909.663 243.47C911.223 245.394 912.965 246.902 914.889 247.994C916.813 249.086 919.049 249.632 921.597 249.632C924.249 249.632 926.303 249.06 927.759 247.916C929.267 246.772 930.021 245.16 930.021 243.08C930.021 241.52 929.501 240.168 928.461 239.024C927.473 237.88 925.653 237.126 923.001 236.762L919.803 236.294C917.359 235.93 915.149 235.332 913.173 234.5C911.197 233.616 909.637 232.394 908.493 230.834C907.401 229.222 906.855 227.168 906.855 224.672C906.855 220.668 908.207 217.704 910.911 215.78C913.667 213.804 917.099 212.816 921.207 212.816C923.391 212.816 925.315 213.076 926.979 213.596C928.695 214.116 930.229 214.87 931.581 215.858C932.933 216.794 934.155 217.938 935.247 219.29L931.113 223.034C930.229 221.786 928.929 220.668 927.213 219.68C925.497 218.64 923.339 218.12 920.739 218.12C918.191 218.12 916.241 218.692 914.889 219.836C913.537 220.928 912.861 222.436 912.861 224.36C912.861 226.284 913.511 227.714 914.811 228.65C916.163 229.534 918.087 230.184 920.583 230.6L923.703 231.068C928.175 231.744 931.347 233.044 933.219 234.968C935.091 236.84 936.027 239.31 936.027 242.378C936.027 244.978 935.429 247.214 934.233 249.086C933.037 250.958 931.321 252.414 929.085 253.454C926.849 254.442 924.197 254.936 921.129 254.936ZM971.008 254H963.208C961.076 254 959.438 253.376 958.294 252.128C957.15 250.88 956.578 249.294 956.578 247.37V219.212H949.948V213.752H953.692C955.044 213.752 955.954 213.492 956.422 212.972C956.942 212.4 957.202 211.438 957.202 210.086V202.598H962.818V213.752H971.632V219.212H962.818V248.54H971.008V254ZM1022.22 254H1018.71C1017.05 254 1015.7 253.662 1014.66 252.986C1013.62 252.258 1012.86 251.27 1012.39 250.022C1011.93 248.774 1011.69 247.344 1011.69 245.732V245.186L1014.11 247.448H1011.38C1010.55 249.892 1009.09 251.764 1007.01 253.064C1004.98 254.312 1002.57 254.936 999.757 254.936C995.493 254.936 992.165 253.844 989.773 251.66C987.433 249.476 986.263 246.512 986.263 242.768C986.263 240.22 986.887 238.088 988.135 236.372C989.383 234.604 991.255 233.278 993.751 232.394C996.299 231.458 999.523 230.99 1003.42 230.99H1011.38V227.012C1011.38 224.152 1010.6 221.968 1009.04 220.46C1007.48 218.952 1005.09 218.198 1001.86 218.198C999.471 218.198 997.443 218.744 995.779 219.836C994.115 220.928 992.737 222.384 991.645 224.204L987.901 220.694C988.993 218.562 990.735 216.716 993.127 215.156C995.519 213.596 998.535 212.816 1002.18 212.816C1007.01 212.816 1010.78 214.012 1013.49 216.404C1016.24 218.796 1017.62 222.124 1017.62 226.388V248.54H1022.22V254ZM1011.38 235.67H1003.11C999.575 235.67 996.975 236.19 995.311 237.23C993.647 238.27 992.815 239.778 992.815 241.754V243.392C992.815 245.368 993.543 246.902 994.999 247.994C996.455 249.086 998.379 249.632 1000.77 249.632C1002.85 249.632 1004.67 249.32 1006.23 248.696C1007.84 248.02 1009.09 247.136 1009.98 246.044C1010.91 244.9 1011.38 243.652 1011.38 242.3V235.67ZM1038.93 254V196.28H1045.17V225.686V232.862H1045.48L1051.64 225.998L1063.03 213.752H1070.6L1055.7 229.664L1072.08 254H1064.51L1051.17 233.486L1045.17 239.648V254H1038.93Z" fill="white" style="fill:white;fill-opacity:1;"/>
<path d="M772 71.74L450.309 393.431" stroke="#443142" stroke-opacity="0.5" style="stroke:#443142;stroke:color(display-p3 0.2662 0.1927 0.2577);stroke-opacity:0.5;" stroke-width="4" stroke-linecap="round"/>
<path d="M446 71.74L767.691 393.431" stroke="#443142" stroke-opacity="0.5" style="stroke:#443142;stroke:color(display-p3 0.2662 0.1927 0.2577);stroke-opacity:0.5;" stroke-width="4" stroke-linecap="round"/>
<path d="M159.407 252.087L156.431 243.931H135.294L132.318 252.087H121.249L139.549 204.785H152.176L170.4 252.087H159.407ZM145.856 213.511L137.979 235.218H153.658L145.856 213.511Z" fill="#2FBB98" style="fill:#2FBB98;fill:color(display-p3 0.1849 0.7319 0.5951);fill-opacity:1;"/>
<path d="M176.137 228.481C176.137 213.942 187.13 204.013 200.959 204.013C211.737 204.013 217.765 209.686 221.096 215.575L212.446 219.831C210.458 216.006 206.203 212.954 200.959 212.954C192.728 212.954 186.497 219.552 186.497 228.481C186.497 237.409 192.74 244.007 200.959 244.007C206.203 244.007 210.458 241.031 212.446 237.13L221.096 241.31C217.689 247.199 211.737 252.936 200.959 252.936C187.13 252.948 176.137 243.019 176.137 228.481Z" fill="#2FBB98" style="fill:#2FBB98;fill:color(display-p3 0.1849 0.7319 0.5951);fill-opacity:1;"/>
<path d="M274.16 245.21L277.63 249.25L270.614 255L266.853 250.529C263.522 252.087 259.685 252.936 255.582 252.936C241.321 252.936 230.898 242.728 230.898 228.468C230.898 214.208 241.321 204 255.582 204C269.905 204 280.328 214.208 280.328 228.468C280.328 235.142 278.061 240.955 274.16 245.21ZM260.533 243.159L255.138 236.852L262.154 231.178L267.55 237.485C269.107 235.003 269.956 231.887 269.956 228.481C269.956 219.615 264.282 212.954 255.556 212.954C246.83 212.954 241.233 219.615 241.233 228.481C241.233 237.27 246.83 244.007 255.556 244.007C257.342 244.007 259.052 243.729 260.533 243.159Z" fill="#2FBB98" style="fill:#2FBB98;fill:color(display-p3 0.1849 0.7319 0.5951);fill-opacity:1;"/>
<path d="M293.448 204.785H303.656V232.875C303.656 239.473 307.278 244.007 314.649 244.007C321.88 244.007 325.502 239.473 325.502 232.875V204.785H335.71V233.154C335.71 244.932 328.972 252.936 314.649 252.936C300.186 252.936 293.448 244.856 293.448 233.217V204.785Z" fill="#2FBB98" style="fill:#2FBB98;fill:color(display-p3 0.1849 0.7319 0.5951);fill-opacity:1;"/>
<path d="M351.11 252.087V204.785H361.178V252.087H351.11Z" fill="#2FBB98" style="fill:#2FBB98;fill:color(display-p3 0.1849 0.7319 0.5951);fill-opacity:1;"/>
<path d="M403.3 252.087L394.005 235.142H386.634V252.087H376.566V204.785H398.691C408.544 204.785 414.572 211.244 414.572 220.033C414.572 228.404 409.329 232.875 404.212 234.078L414.85 252.087H403.3ZM397.209 213.435H386.647V226.479H397.209C401.249 226.479 404.301 223.921 404.301 219.957C404.301 215.993 401.249 213.435 397.209 213.435Z" fill="#2FBB98" style="fill:#2FBB98;fill:color(display-p3 0.1849 0.7319 0.5951);fill-opacity:1;"/>
<path d="M428.199 252.087V204.785H461.671V213.435H438.267V223.719H461.177V232.368H438.267V243.361H461.671V252.087H428.199Z" fill="#2FBB98" style="fill:#2FBB98;fill:color(display-p3 0.1849 0.7319 0.5951);fill-opacity:1;"/>
<path d="M475.564 252.087V204.785H494.219C509.036 204.785 519.32 214.22 519.32 228.468C519.32 242.715 509.036 252.087 494.219 252.087H475.564ZM485.645 243.222H494.232C503.591 243.222 509.049 236.484 509.049 228.468C509.049 220.097 503.945 213.65 494.232 213.65H485.645V243.222Z" fill="#2FBB98" style="fill:#2FBB98;fill:color(display-p3 0.1849 0.7319 0.5951);fill-opacity:1;"/>
<defs>
<filter id="filter0_g_276_917" x="892" y="136" width="194" height="194" filterUnits="userSpaceOnUse" color-interpolation-filters="sRGB">
<feFlood flood-opacity="0" result="BackgroundImageFix"/>
<feBlend mode="normal" in="SourceGraphic" in2="BackgroundImageFix" result="shape"/>
<feTurbulence type="fractalNoise" baseFrequency="0.02500000037252903 0.02500000037252903" numOctaves="3" seed="2310" />
<feDisplacementMap in="shape" scale="10" xChannelSelector="R" yChannelSelector="G" result="displacedImage" width="100%" height="100%" />
<feMerge result="effect1_texture_276_917">
<feMergeNode in="displacedImage"/>
</feMerge>
</filter>
</defs>
</svg>
