<svg width="600" height="329" viewBox="0 0 600 329" fill="none" xmlns="http://www.w3.org/2000/svg">
<rect width="394.802" height="147.218" transform="matrix(0.996269 0.0863058 -0.0880139 0.996119 109.885 148.131)" fill="#EEF8FC" style="fill:#EEF8FC;fill:color(display-p3 0.9333 0.9725 0.9882);fill-opacity:1;"/>
<path d="M146.747 282.924C141.488 282.469 136.822 281.422 132.75 279.785C128.667 278.253 124.935 276.431 121.553 274.317L123.39 255.363L125 255.502L129.629 265.54C131.614 269.995 133.908 273.407 136.511 275.774C139.23 278.044 142.789 279.369 147.19 279.75C152.341 280.197 156.571 279.439 159.881 277.477C163.307 275.418 165.189 272.476 165.527 268.65C165.837 265.143 164.964 262.177 162.907 259.75C160.851 257.323 156.843 254.941 150.886 252.605L144.308 249.947C137.93 247.467 133.042 244.045 129.642 239.682C126.243 235.318 124.801 230.214 125.318 224.37C125.937 217.356 129.254 211.647 135.266 207.242C141.279 202.837 149.49 201.086 159.9 201.988C164.086 202.35 167.961 203.168 171.525 204.44C175.206 205.616 178.684 207.256 181.959 209.36L179.472 226.491L177.862 226.352L173.101 215.981C171.371 212.297 169.548 209.677 167.631 208.118C165.831 206.463 162.945 205.464 158.975 205.12C155.326 204.804 151.802 205.516 148.404 207.256C145.006 208.996 143.143 211.726 142.814 215.445C142.495 219.058 143.583 222.044 146.078 224.401C148.681 226.768 152.585 229.088 157.792 231.359L164.853 234.059C172.373 237.066 177.614 240.786 180.575 245.218C183.545 249.545 184.776 254.577 184.269 260.315C183.584 268.073 179.922 274.02 173.285 278.156C166.754 282.302 157.908 283.891 146.747 282.924Z" fill="#0A2933" style="fill:#0A2933;fill:color(display-p3 0.0392 0.1608 0.2000);fill-opacity:1;"/>
<path d="M213.159 288.678C206.291 288.083 201.075 285.918 197.512 282.182C194.056 278.456 192.657 272.874 193.314 265.436L198.131 210.921L187.023 209.959L187.164 208.365L191.084 208.062C194.476 207.606 197.414 206.79 199.897 205.613C202.488 204.446 205.067 202.795 207.634 200.662L222.116 187.3L223.726 187.439L221.272 209.713L239.301 211.275L239.02 214.463L220.829 212.888L215.759 270.271C215.43 273.99 215.986 276.876 217.427 278.928C218.975 280.99 221.037 282.132 223.613 282.355C225.866 282.551 227.899 282.191 229.71 281.277C231.53 280.257 233.383 278.865 235.27 277.101L236.739 278.835C234.273 282.262 231.068 284.875 227.124 286.675C223.18 288.475 218.525 289.143 213.159 288.678Z" fill="#0A2933" style="fill:#0A2933;fill:color(display-p3 0.0392 0.1608 0.2000);fill-opacity:1;"/>
<path d="M260.487 292.778C254.262 292.238 249.158 290.029 245.175 286.151C241.3 282.281 239.653 277.053 240.235 270.464C240.676 265.47 243.656 261.123 249.173 257.425C254.7 253.621 263.085 251.135 274.326 249.967C276.072 249.797 278.032 249.645 280.206 249.513C282.39 249.274 284.681 249.044 287.08 248.823L288.193 236.231C288.831 229.005 288.365 223.878 286.794 220.851C285.34 217.726 282.734 216.002 278.978 215.676C276.403 215.453 274.288 216.127 272.636 217.697C270.992 219.161 269.778 221.893 268.992 225.894L268.515 227.619C267.896 232.17 266.474 235.42 264.247 237.369C262.02 239.317 259.404 240.161 256.399 239.901C253.609 239.659 251.376 238.609 249.702 236.751C248.028 234.893 247.318 232.529 247.571 229.66C247.956 225.303 249.783 221.767 253.05 219.052C256.426 216.346 260.701 214.468 265.876 213.417C271.052 212.366 276.591 212.096 282.494 212.608C292.045 213.435 299.19 216.41 303.928 221.532C308.783 226.557 310.751 234.276 309.831 244.69L306.718 279.918C306.295 284.7 308.338 287.286 312.845 287.676L316.387 287.983L317.723 289.384C315.459 291.758 313.031 293.528 310.441 294.696C307.958 295.873 304.516 296.271 300.116 295.889C295.394 295.48 291.731 294.092 289.129 291.725C286.643 289.261 285.131 286.186 284.591 282.498C281.071 285.62 277.486 288.254 273.836 290.4C270.302 292.45 265.853 293.242 260.487 292.778ZM271.165 283.905C273.312 284.091 275.34 283.785 277.248 282.986C279.274 282.091 281.669 280.692 284.432 278.79L286.798 252.011C285.706 252.131 284.614 252.25 283.522 252.37C282.43 252.489 281.177 252.595 279.763 252.687C274.714 253.534 270.551 255.369 267.273 258.19C264.113 260.914 262.307 264.827 261.857 269.928C261.472 274.285 262.2 277.667 264.042 280.076C265.893 282.377 268.268 283.654 271.165 283.905Z" fill="#0A2933" style="fill:#0A2933;fill:color(display-p3 0.0392 0.1608 0.2000);fill-opacity:1;"/>
<path d="M351.104 300.628C343.807 299.996 337.289 297.878 331.551 294.276C325.93 290.577 321.612 285.598 318.596 279.34C315.697 272.986 314.632 265.452 315.402 256.738C316.163 248.13 318.689 240.961 322.98 235.229C327.388 229.4 332.899 225.166 339.513 222.527C346.243 219.79 353.418 218.752 361.038 219.412C367.263 219.951 372.432 221.416 376.546 223.807C380.661 226.198 383.699 229.138 385.662 232.628C387.634 236.011 388.465 239.456 388.155 242.963C387.892 245.938 386.774 248.197 384.799 249.739C382.834 251.175 380.402 251.768 377.505 251.517C374.392 251.247 371.969 249.913 370.234 247.514C368.5 245.115 367.631 242.095 367.628 238.454C367.728 236.107 367.955 234.146 368.31 232.57C368.675 230.889 368.825 229.188 368.761 227.47C368.491 225.626 367.897 224.396 366.978 223.781C366.176 223.069 364.97 222.644 363.36 222.504C356.814 221.937 351.467 224.312 347.321 229.628C343.281 234.953 340.717 243.779 339.628 256.106C338.68 266.839 339.937 275.246 343.401 281.329C346.982 287.314 352.958 290.669 361.329 291.395C366.373 291.831 370.531 291.281 373.802 289.745C377.074 288.208 380.319 285.758 383.536 282.396L385.033 283.811C381.796 289.848 377.237 294.325 371.356 297.242C365.475 300.159 358.724 301.288 351.104 300.628Z" fill="#0A2933" style="fill:#0A2933;fill:color(display-p3 0.0392 0.1608 0.2000);fill-opacity:1;"/>
<path d="M381.364 300.84L381.504 299.246L383.99 298.658C387.742 297.805 389.796 295.36 390.153 291.322L397.688 206.043C397.876 203.918 397.587 202.287 396.823 201.15C396.058 200.013 394.631 199.032 392.541 198.209L390.49 197.549L390.631 195.955L420.696 191.653L422.501 193.255L420.046 215.529L413.173 293.316C412.798 297.566 414.334 300.377 417.781 301.746L419.979 302.579L419.838 304.173L381.364 300.84ZM441.087 306.014L415.954 263.682L448.144 239.004C449.652 237.85 450.574 236.591 450.911 235.229C451.364 233.769 450.546 232.627 448.456 231.803L445.789 230.769L445.93 229.175L469.916 231.253L469.775 232.847L464.833 233.704C462.406 234.243 460.395 234.979 458.799 235.912C457.319 236.747 455.48 237.98 453.281 239.61L433.772 254.785L459.081 296.972C460.592 299.458 462.042 301.404 463.432 302.809C464.821 304.215 466.659 305.445 468.945 306.5L469.561 306.874L469.42 308.468L441.087 306.014Z" fill="#0A2933" style="fill:#0A2933;fill:color(display-p3 0.0392 0.1608 0.2000);fill-opacity:1;"/>
<rect width="589.241" height="147.218" transform="matrix(0.996269 -0.0863058 0.0880139 0.996119 0 50.855)" fill="#E0FF4F" style="fill:#E0FF4F;fill:color(display-p3 0.8784 1.0000 0.3098);fill-opacity:1;"/>
<path d="M67.5607 176.603C61.2288 177.151 55.4187 176.262 50.1306 173.936C44.833 171.504 40.4235 167.496 36.9021 161.912C33.4787 156.212 31.3585 148.739 30.5416 139.494C29.7154 130.143 30.6981 122.294 33.4899 115.949C36.2722 109.497 40.2686 104.547 45.4791 101.097C50.6801 97.5413 56.5002 95.4844 62.9395 94.9266C66.6957 94.6012 70.3238 94.6617 73.8238 95.1081C77.3237 95.5544 80.481 96.4052 83.2954 97.6605L81.4645 76.9387C81.2673 74.7071 80.7462 73.0925 79.901 72.0949C79.1632 71.0881 77.6487 70.4697 75.3574 70.2399L72.2424 69.8673L72.1016 68.2733L100.78 58.7216L102.678 60.0028L104.006 82.3744L110.893 160.32C111.081 162.446 111.611 164.167 112.484 165.483C113.348 166.693 114.823 167.476 116.909 167.83L118.4 168.183L118.541 169.777L91.1685 173.915L89.2127 168.302C86.484 170.466 83.2932 172.295 79.6403 173.789C76.0947 175.274 72.0682 176.212 67.5607 176.603ZM76.3765 169.896C80.8839 169.506 84.8984 167.819 88.4199 164.837L82.8285 101.556C78.6323 99.3494 74.4415 98.4275 70.256 98.7901C65.1046 99.2364 60.9674 102.593 57.8443 108.86C54.7118 115.021 53.7042 124.424 54.8215 137.07C55.9389 149.715 58.4447 158.493 62.339 163.402C66.224 168.206 70.9031 170.37 76.3765 169.896Z" fill="#0A2933" style="fill:#0A2933;fill:color(display-p3 0.0392 0.1608 0.2000);fill-opacity:1;"/>
<path d="M149.958 87.3883C156.934 86.784 163.017 87.7026 168.207 90.1441C173.388 92.4794 177.482 95.9795 180.49 100.645C183.595 105.194 185.42 110.551 185.965 116.714C186.068 117.883 186.122 119.11 186.128 120.394C186.124 121.572 186.003 122.654 185.766 123.638L137.793 127.794C138.915 139.261 141.686 147.373 146.108 152.13C150.627 156.771 156.858 158.748 164.799 158.06C170.166 157.595 174.437 156.368 177.614 154.38C180.79 152.391 183.682 149.625 186.289 146.079L188.025 147.374C185.215 153.507 181.165 158.463 175.875 162.24C170.693 166.009 164.238 168.228 156.511 168.897C148.891 169.557 141.989 168.549 135.805 165.872C129.611 163.089 124.583 158.813 120.721 153.044C116.859 147.275 114.557 140.193 113.815 131.798C113.045 123.085 114.325 115.532 117.653 109.14C120.972 102.642 125.495 97.5384 131.224 93.8298C137.059 90.1119 143.304 87.9647 149.958 87.3883ZM149.757 90.6181C146.644 90.8877 144.046 92.0766 141.961 94.1846C139.974 96.177 138.548 99.62 137.683 104.514C136.916 109.292 136.858 115.989 137.512 124.606L165.039 122.221C165.089 110.545 163.923 102.24 161.54 97.307C159.158 92.3736 155.23 90.144 149.757 90.6181Z" fill="#0A2933" style="fill:#0A2933;fill:color(display-p3 0.0392 0.1608 0.2000);fill-opacity:1;"/>
<path d="M234.506 162.14C227.209 162.772 220.419 161.808 214.136 159.247C207.952 156.57 202.826 152.41 198.759 146.766C194.789 141.006 192.42 133.769 191.65 125.056C190.889 116.448 192.12 108.953 195.341 102.571C198.66 96.0724 203.344 90.9551 209.394 87.2186C215.542 83.3665 222.426 81.1104 230.046 80.4503C236.271 79.9111 241.619 80.4651 246.09 82.1122C250.561 83.7594 254.069 86.1325 256.614 89.2315C259.149 92.2242 260.572 95.474 260.882 98.9808C261.145 101.956 260.439 104.373 258.765 106.231C257.081 107.983 254.791 108.985 251.893 109.236C248.781 109.506 246.16 108.608 244.031 106.544C241.902 104.48 240.517 101.655 239.876 98.07C239.562 95.7414 239.442 93.7709 239.516 92.1583C239.58 90.4394 239.43 88.7392 239.065 87.0575C238.476 85.2882 237.675 84.1797 236.662 83.732C235.748 83.1688 234.485 82.9569 232.875 83.0964C226.329 83.6635 221.48 86.9212 218.329 92.8694C215.285 98.8082 214.307 107.941 215.397 120.268C216.345 131.001 219.058 139.064 223.536 144.459C228.112 149.738 234.585 152.014 242.956 151.289C248 150.852 251.998 149.596 254.951 147.52C257.904 145.443 260.669 142.473 263.248 138.609L264.97 139.745C262.841 146.247 259.137 151.44 253.856 155.324C248.576 159.208 242.126 161.48 234.506 162.14Z" fill="#0A2933" style="fill:#0A2933;fill:color(display-p3 0.0392 0.1608 0.2000);fill-opacity:1;"/>
<path d="M279.079 67.8504C275.431 68.1665 272.22 67.3204 269.447 65.3119C266.772 63.1879 265.28 60.3725 264.97 56.8657C264.65 53.2527 265.626 50.2234 267.898 47.778C270.276 45.3233 273.29 43.9379 276.939 43.6218C280.588 43.3057 283.745 44.1565 286.41 46.1743C289.076 48.192 290.568 51.0074 290.888 54.6205C291.197 58.1272 290.221 61.1565 287.96 63.7082C285.688 66.1536 282.728 67.5343 279.079 67.8504ZM267.802 156.847L267.661 155.253L269.858 154.42C271.948 153.596 273.313 152.514 273.951 151.174C274.697 149.825 274.976 148.087 274.788 145.962L270.38 96.0699C270.183 93.8383 269.608 92.2284 268.656 91.2401C267.801 90.1362 266.282 89.4648 264.098 89.2256L261.802 88.9427L261.661 87.3487L290.29 75.3921L292.04 76.8466L293.557 99.5231L297.501 144.155C297.689 146.28 298.214 147.948 299.078 149.158C300.05 150.359 301.583 151.19 303.678 151.651L305.33 151.989L305.471 153.583L267.802 156.847Z" fill="#0A2933" style="fill:#0A2933;fill:color(display-p3 0.0392 0.1608 0.2000);fill-opacity:1;"/>
<path d="M334.22 153.502C328.961 153.958 324.183 153.729 319.885 152.817C315.596 152.01 311.601 150.857 307.9 149.357L306.385 130.375L307.995 130.236L314.313 139.325C317.05 143.371 319.907 146.336 322.885 148.22C325.961 149.988 329.699 150.681 334.099 150.3C339.251 149.854 343.284 148.38 346.199 145.879C349.212 143.262 350.55 140.041 350.212 136.216C349.902 132.709 348.521 129.937 346.071 127.901C343.62 125.865 339.256 124.208 332.979 122.931L326.035 121.445C319.319 120.099 313.905 117.57 309.792 113.857C305.679 110.145 303.364 105.366 302.848 99.5214C302.228 92.5079 304.492 86.3152 309.641 80.9436C314.79 75.5719 322.569 72.4351 332.979 71.5333C337.165 71.1707 341.124 71.3096 344.858 71.9499C348.689 72.4746 352.402 73.4915 355.996 75.0005L356.551 92.2993L354.941 92.4387L348.433 83.0441C346.085 79.7139 343.829 77.4465 341.668 76.2417C339.605 74.9213 336.588 74.4331 332.617 74.7771C328.968 75.0932 325.623 76.4002 322.582 78.6982C319.541 80.9961 318.185 84.0048 318.513 87.7241C318.832 91.3371 320.427 94.0901 323.298 95.983C326.276 97.8666 330.528 99.4792 336.054 100.821L343.481 102.266C351.415 103.934 357.228 106.696 360.921 110.552C364.605 114.302 366.7 119.046 367.207 124.785C367.893 132.542 365.33 139.028 359.518 144.243C353.814 149.449 345.381 152.535 334.22 153.502Z" fill="#0A2933" style="fill:#0A2933;fill:color(display-p3 0.0392 0.1608 0.2000);fill-opacity:1;"/>
<path d="M380.963 59.0244C377.314 59.3405 374.103 58.4943 371.33 56.4859C368.655 54.3618 367.163 51.5465 366.853 48.0397C366.534 44.4266 367.51 41.3974 369.781 38.952C372.159 36.4973 375.173 35.1119 378.822 34.7958C382.471 34.4797 385.628 35.3305 388.294 37.3482C390.959 39.366 392.451 42.1814 392.771 45.7944C393.081 49.3012 392.105 52.3304 389.843 54.8821C387.572 57.3275 384.611 58.7083 380.963 59.0244ZM369.685 148.021L369.544 146.427L371.741 145.594C373.832 144.77 375.196 143.688 375.834 142.348C376.58 140.998 376.859 139.261 376.672 137.136L372.263 87.2439C372.066 85.0123 371.491 83.4023 370.539 82.4141C369.684 81.3102 368.165 80.6387 365.981 80.3996L363.685 80.1166L363.544 78.5227L392.173 66.5661L393.923 68.0206L395.44 90.6971L399.384 135.329C399.572 137.454 400.098 139.122 400.962 140.332C401.933 141.533 403.466 142.364 405.561 142.825L407.214 143.163L407.354 144.757L369.685 148.021Z" fill="#0A2933" style="fill:#0A2933;fill:color(display-p3 0.0392 0.1608 0.2000);fill-opacity:1;"/>
<path d="M448.982 143.56C440.825 144.267 433.597 143.234 427.296 140.46C420.985 137.58 415.894 133.203 412.023 127.327C408.259 121.443 406.01 114.356 405.278 106.067C404.546 97.7787 405.629 90.457 408.528 84.1023C411.534 77.7383 415.897 72.6489 421.616 68.834C427.442 65.0098 434.165 62.7677 441.785 62.1076C449.405 61.4475 456.365 62.5043 462.666 65.2779C468.958 67.9452 474.088 72.1587 478.058 77.9184C482.134 83.6687 484.544 90.7414 485.285 99.1364C486.027 107.531 485.007 114.955 482.224 121.406C479.54 127.742 475.343 132.871 469.634 136.792C464.022 140.598 457.138 142.854 448.982 143.56ZM448.7 140.372C452.456 140.047 455.367 138.724 457.433 136.404C459.499 134.083 460.776 130.171 461.263 124.668C461.857 119.155 461.718 111.458 460.844 101.575C459.962 91.586 458.745 83.9282 457.192 78.6016C455.748 73.2657 453.805 69.6327 451.363 67.7026C448.922 65.7725 445.823 64.9702 442.066 65.2956C438.31 65.621 435.345 66.9486 433.172 69.2785C431.106 71.599 429.776 75.5156 429.182 81.0281C428.695 86.5313 428.893 94.2775 429.775 104.266C430.648 114.149 431.807 121.759 433.252 127.094C434.804 132.421 436.801 136.049 439.242 137.979C441.791 139.9 444.944 140.698 448.7 140.372Z" fill="#0A2933" style="fill:#0A2933;fill:color(display-p3 0.0392 0.1608 0.2000);fill-opacity:1;"/>
<path d="M489.325 137.656L489.184 136.062L491.382 135.229C495.044 133.841 496.692 131.075 496.326 126.931L491.917 77.039C491.711 74.7011 491.185 73.0334 490.34 72.0358C489.485 70.932 487.966 70.2605 485.782 70.0214L483.311 69.5929L483.17 67.999L509.881 56.3691L511.632 57.8237L513.765 67.276C517.23 63.6564 521.23 60.5794 525.764 58.045C530.298 55.5106 534.873 54.0435 539.487 53.6437C546.571 53.0301 552.159 54.4734 556.254 57.9736C560.455 61.4645 562.903 67.1417 563.598 75.0054L567.654 120.912C568.02 125.057 570.29 127.484 574.462 128.193L575.953 128.546L576.094 130.14L538.102 133.431L537.961 131.837L539.998 131.018C543.651 129.524 545.299 126.757 544.942 122.719L540.449 71.871C539.848 65.07 536.113 61.967 529.245 62.562C524.523 62.971 519.578 65.7552 514.411 70.9143L519.199 125.11C519.565 129.254 521.673 131.695 525.524 132.432L527.015 132.785L527.155 134.379L489.325 137.656Z" fill="#0A2933" style="fill:#0A2933;fill:color(display-p3 0.0392 0.1608 0.2000);fill-opacity:1;"/>
</svg>
