<svg width="600" height="333" viewBox="0 0 600 333" fill="none" xmlns="http://www.w3.org/2000/svg">
<rect x="109.885" y="149.601" width="394.832" height="148.668" transform="rotate(5 109.885 149.601)" fill="#0A2933" style="fill:#0A2933;fill:color(display-p3 0.0392 0.1608 0.2000);fill-opacity:1;"/>
<path d="M146.746 285.732C141.488 285.272 136.822 284.215 132.749 282.561C128.667 281.014 124.935 279.174 121.553 277.039L123.39 257.897L125 258.038L129.628 268.175C131.613 272.675 133.907 276.12 136.51 278.51C139.229 280.803 142.789 282.142 147.189 282.527C152.34 282.977 156.571 282.212 159.88 280.23C163.306 278.151 165.189 275.18 165.527 271.316C165.836 267.774 164.963 264.778 162.907 262.327C160.85 259.876 156.843 257.471 150.885 255.112L144.307 252.427C137.93 249.923 133.041 246.467 129.642 242.06C126.242 237.653 124.801 232.499 125.317 226.596C125.937 219.513 129.253 213.747 135.266 209.299C141.278 204.85 149.489 203.081 159.9 203.992C164.085 204.358 167.96 205.184 171.524 206.469C175.206 207.656 178.683 209.312 181.958 211.437L179.471 228.739L177.861 228.598L173.1 218.124C171.371 214.404 169.548 211.757 167.631 210.184C165.83 208.512 162.945 207.503 158.974 207.155C155.325 206.836 151.802 207.555 148.404 209.313C145.006 211.07 143.142 213.827 142.814 217.583C142.494 221.232 143.582 224.247 146.078 226.628C148.68 229.019 152.585 231.361 157.791 233.655L164.852 236.381C172.373 239.418 177.613 243.175 180.574 247.652C183.544 252.021 184.776 257.103 184.269 262.899C183.583 270.733 179.922 276.739 173.284 280.916C166.754 285.103 157.908 286.709 146.746 285.732Z" fill="#EEF8FC" style="fill:#EEF8FC;fill:color(display-p3 0.9333 0.9725 0.9882);fill-opacity:1;"/>
<path d="M213.158 291.542C206.29 290.941 201.074 288.755 197.511 284.983C194.055 281.22 192.656 275.582 193.313 268.07L198.13 213.014L187.022 212.042L187.163 210.433L191.083 210.127C194.476 209.667 197.414 208.842 199.897 207.654C202.487 206.474 205.066 204.808 207.634 202.653L222.116 189.159L223.726 189.3L221.271 211.795L239.301 213.372L239.019 216.592L220.828 215L215.758 272.953C215.429 276.709 215.986 279.624 217.426 281.696C218.974 283.778 221.036 284.932 223.612 285.157C225.866 285.355 227.898 284.992 229.709 284.069C231.53 283.038 233.383 281.632 235.269 279.851L236.738 281.602C234.272 285.063 231.067 287.702 227.123 289.52C223.179 291.338 218.524 292.012 213.158 291.542Z" fill="#EEF8FC" style="fill:#EEF8FC;fill:color(display-p3 0.9333 0.9725 0.9882);fill-opacity:1;"/>
<path d="M260.486 295.683C254.261 295.138 249.158 292.908 245.175 288.99C241.299 285.083 239.652 279.802 240.234 273.148C240.676 268.104 243.655 263.714 249.173 259.98C254.7 256.138 263.084 253.627 274.326 252.448C276.071 252.276 278.031 252.123 280.206 251.989C282.389 251.747 284.681 251.515 287.079 251.292L288.192 238.575C288.831 231.277 288.364 226.1 286.793 223.042C285.339 219.887 282.734 218.145 278.978 217.817C276.402 217.591 274.288 218.271 272.635 219.857C270.992 221.335 269.777 224.095 268.991 228.135L268.514 229.878C267.896 234.474 266.473 237.756 264.246 239.724C262.019 241.692 259.403 242.545 256.398 242.282C253.608 242.038 251.376 240.977 249.702 239.1C248.027 237.224 247.317 234.837 247.571 231.939C247.956 227.539 249.782 223.968 253.05 221.226C256.425 218.493 260.7 216.596 265.876 215.535C271.051 214.474 276.59 214.201 282.493 214.718C292.045 215.553 299.189 218.557 303.928 223.73C308.783 228.805 310.75 236.601 309.83 247.119L306.717 282.695C306.295 287.525 308.337 290.137 312.845 290.531L316.386 290.841L317.722 292.255C315.458 294.653 313.031 296.441 310.44 297.62C307.957 298.809 304.515 299.211 300.115 298.826C295.393 298.413 291.731 297.011 289.128 294.62C286.643 292.132 285.13 289.026 284.591 285.302C281.071 288.454 277.485 291.114 273.835 293.282C270.302 295.352 265.852 296.152 260.486 295.683ZM271.165 286.722C273.311 286.91 275.339 286.601 277.248 285.795C279.274 284.89 281.668 283.478 284.432 281.557L286.798 254.512C285.706 254.633 284.614 254.753 283.522 254.874C282.43 254.995 281.177 255.102 279.763 255.194C274.713 256.05 270.55 257.903 267.273 260.752C264.112 263.504 262.307 267.455 261.856 272.606C261.471 277.007 262.2 280.423 264.041 282.855C265.893 285.18 268.267 286.469 271.165 286.722Z" fill="#EEF8FC" style="fill:#EEF8FC;fill:color(display-p3 0.9333 0.9725 0.9882);fill-opacity:1;"/>
<path d="M351.104 303.611C343.806 302.973 337.288 300.834 331.551 297.196C325.93 293.46 321.611 288.432 318.596 282.112C315.696 275.695 314.632 268.086 315.402 259.285C316.162 250.592 318.688 243.352 322.98 237.563C327.388 231.676 332.899 227.4 339.512 224.735C346.243 221.971 353.418 220.923 361.037 221.589C367.262 222.134 372.431 223.614 376.546 226.028C380.66 228.443 383.699 231.412 385.661 234.936C387.634 238.353 388.465 241.832 388.155 245.374C387.892 248.379 386.773 250.66 384.798 252.218C382.833 253.668 380.402 254.266 377.504 254.013C374.392 253.74 371.968 252.393 370.234 249.97C368.499 247.547 367.63 244.497 367.628 240.82C367.727 238.45 367.954 236.469 368.31 234.878C368.675 233.18 368.825 231.463 368.76 229.727C368.491 227.865 367.897 226.623 366.978 226.002C366.175 225.283 364.969 224.853 363.36 224.712C356.813 224.14 351.466 226.538 347.32 231.906C343.281 237.284 340.717 246.198 339.627 258.647C338.679 269.487 339.937 277.978 343.401 284.12C346.981 290.165 352.957 293.554 361.328 294.286C366.372 294.727 370.53 294.172 373.802 292.62C377.074 291.068 380.318 288.594 383.535 285.199L385.032 286.627C381.795 292.724 377.236 297.246 371.355 300.192C365.474 303.138 358.724 304.278 351.104 303.611Z" fill="#EEF8FC" style="fill:#EEF8FC;fill:color(display-p3 0.9333 0.9725 0.9882);fill-opacity:1;"/>
<path d="M381.363 303.825L381.504 302.215L383.989 301.622C387.741 300.76 389.796 298.291 390.153 294.213L397.687 208.088C397.875 205.941 397.587 204.294 396.822 203.146C396.057 201.997 394.63 201.007 392.54 200.176L390.489 199.51L390.63 197.9L420.695 193.555L422.5 195.173L420.046 217.668L413.173 296.227C412.797 300.519 414.333 303.357 417.781 304.74L419.978 305.581L419.837 307.191L381.363 303.825ZM441.087 309.05L415.953 266.298L448.143 241.376C449.651 240.21 450.573 238.939 450.91 237.563C451.363 236.089 450.545 234.935 448.455 234.104L445.789 233.059L445.93 231.45L469.916 233.548L469.775 235.158L464.833 236.023C462.406 236.568 460.394 237.311 458.798 238.253C457.318 239.097 455.479 240.342 453.28 241.988L433.772 257.313L459.08 299.919C460.591 302.43 462.041 304.395 463.431 305.814C464.821 307.234 466.659 308.476 468.945 309.541L469.56 309.919L469.419 311.529L441.087 309.05Z" fill="#EEF8FC" style="fill:#EEF8FC;fill:color(display-p3 0.9333 0.9725 0.9882);fill-opacity:1;"/>
<rect y="51.3596" width="589.285" height="148.668" transform="rotate(-5 0 51.3596)" fill="#0A2933" style="fill:#0A2933;fill:color(display-p3 0.0392 0.1608 0.2000);fill-opacity:1;"/>
<path d="M67.5603 178.355C61.2284 178.909 55.4183 178.012 50.1302 175.663C44.8326 173.206 40.4231 169.158 36.9017 163.518C33.4783 157.762 31.3581 150.215 30.5412 140.878C29.715 131.434 30.6977 123.508 33.4895 117.1C36.2718 110.584 40.2682 105.584 45.4787 102.1C50.6797 98.5093 56.4998 96.432 62.9391 95.8687C66.6953 95.5401 70.3234 95.6011 73.8234 96.0519C77.3233 96.5027 80.4806 97.362 83.295 98.6297L81.4641 77.7022C81.2669 75.4485 80.7458 73.8179 79.9006 72.8104C79.1628 71.7936 77.6483 71.1691 75.357 70.937L72.242 70.5606L72.1012 68.9508L100.78 59.3044L102.678 60.5983L104.005 83.1919L110.892 161.911C111.08 164.058 111.611 165.796 112.484 167.125C113.348 168.347 114.823 169.138 116.909 169.496L118.4 169.852L118.541 171.462L91.1681 175.641L89.2123 169.972C86.4836 172.158 83.2928 174.005 79.6399 175.514C76.0943 177.014 72.0678 177.961 67.5603 178.355ZM76.3761 171.582C80.8835 171.188 84.898 169.485 88.4195 166.473L82.8281 102.564C78.6319 100.335 74.4411 99.4043 70.2556 99.7705C65.1042 100.221 60.967 103.611 57.8439 109.94C54.7114 116.162 53.7038 125.659 54.8212 138.43C55.9385 151.201 58.4443 160.066 62.3386 165.024C66.2236 169.875 70.9027 172.061 76.3761 171.582Z" fill="#EEF8FC" style="fill:#EEF8FC;fill:color(display-p3 0.9333 0.9725 0.9882);fill-opacity:1;"/>
<path d="M149.958 88.2556C156.933 87.6453 163.016 88.573 168.207 91.0387C173.387 93.3971 177.482 96.932 180.489 101.643C183.595 106.238 185.42 111.648 185.964 117.872C186.068 119.053 186.122 120.292 186.127 121.589C186.123 122.779 186.003 123.871 185.765 124.865L137.793 129.062C138.914 140.643 141.686 148.836 146.107 153.64C150.627 158.327 156.857 160.323 164.799 159.628C170.165 159.159 174.436 157.92 177.613 155.912C180.79 153.904 183.682 151.109 186.288 147.529L188.025 148.837C185.214 155.031 181.164 160.035 175.875 163.85C170.692 167.656 164.238 169.897 156.51 170.573C148.891 171.24 141.989 170.221 135.804 167.518C129.611 164.708 124.583 160.389 120.721 154.563C116.859 148.737 114.557 141.585 113.815 133.106C113.045 124.306 114.324 116.678 117.652 110.223C120.971 103.66 125.495 98.5064 131.223 94.761C137.059 91.0062 143.304 88.8377 149.958 88.2556ZM149.756 91.5174C146.644 91.7897 144.045 92.9903 141.961 95.1193C139.974 97.1315 138.548 100.609 137.683 105.551C136.915 110.376 136.858 117.14 137.511 125.842L165.039 123.434C165.089 111.642 163.922 103.255 161.54 98.2727C159.157 93.2903 155.23 91.0386 149.756 91.5174Z" fill="#EEF8FC" style="fill:#EEF8FC;fill:color(display-p3 0.9333 0.9725 0.9882);fill-opacity:1;"/>
<path d="M234.506 163.749C227.208 164.388 220.418 163.414 214.136 160.827C207.952 158.124 202.826 153.922 198.758 148.222C194.789 142.405 192.419 135.097 191.649 126.297C190.889 117.604 192.119 110.034 195.34 103.588C198.659 97.0258 203.344 91.8577 209.394 88.0841C215.542 84.1938 222.426 81.9154 230.046 81.2487C236.27 80.7042 241.618 81.2636 246.089 82.9271C250.561 84.5907 254.069 86.9873 256.614 90.1171C259.149 93.1395 260.572 96.4215 260.881 99.9631C261.144 102.968 260.439 105.409 258.764 107.286C257.081 109.055 254.79 110.067 251.893 110.32C248.78 110.592 246.16 109.686 244.031 107.601C241.902 105.517 240.517 102.664 239.875 99.0432C239.562 96.6916 239.442 94.7015 239.515 93.0729C239.58 91.337 239.43 89.6198 239.065 87.9215C238.476 86.1346 237.675 85.0151 236.662 84.563C235.747 83.9942 234.485 83.7802 232.875 83.9211C226.328 84.4938 221.48 87.7838 218.328 93.791C215.284 99.7888 214.307 109.012 215.396 121.461C216.344 132.301 219.058 140.445 223.535 145.892C228.111 151.224 234.585 153.523 242.956 152.791C248 152.349 251.998 151.08 254.951 148.984C257.903 146.887 260.669 143.887 263.247 139.985L264.97 141.132C262.841 147.699 259.136 152.943 253.856 156.866C248.576 160.788 242.126 163.083 234.506 163.749Z" fill="#EEF8FC" style="fill:#EEF8FC;fill:color(display-p3 0.9333 0.9725 0.9882);fill-opacity:1;"/>
<path d="M279.079 68.5238C275.43 68.8431 272.219 67.9885 269.446 65.9601C266.772 63.815 265.279 60.9717 264.969 57.4301C264.65 53.7812 265.626 50.7219 267.897 48.2522C270.276 45.7731 273.289 44.374 276.938 44.0548C280.587 43.7355 283.744 44.5948 286.41 46.6326C289.076 48.6703 290.568 51.5137 290.887 55.1626C291.197 58.7041 290.221 61.7634 287.959 64.3404C285.688 66.8101 282.728 68.2046 279.079 68.5238ZM267.801 158.403L267.661 156.793L269.858 155.952C271.948 155.121 273.312 154.028 273.951 152.674C274.697 151.311 274.976 149.557 274.788 147.41L270.38 97.0233C270.183 94.7696 269.608 93.1437 268.655 92.1456C267.801 91.0308 266.282 90.3526 264.098 90.1111L261.802 89.8254L261.661 88.2156L290.289 76.1403L292.04 77.6093L293.557 100.511L297.5 145.585C297.688 147.732 298.214 149.416 299.078 150.638C300.049 151.851 301.583 152.69 303.678 153.156L305.33 153.498L305.471 155.107L267.801 158.403Z" fill="#EEF8FC" style="fill:#EEF8FC;fill:color(display-p3 0.9333 0.9725 0.9882);fill-opacity:1;"/>
<path d="M334.22 155.025C328.961 155.486 324.183 155.255 319.884 154.333C315.596 153.519 311.601 152.354 307.899 150.84L306.384 131.669L307.994 131.528L314.313 140.708C317.049 144.794 319.907 147.789 322.885 149.691C325.961 151.476 329.699 152.177 334.099 151.792C339.25 151.341 343.284 149.853 346.199 147.327C349.212 144.684 350.549 141.431 350.211 137.567C349.901 134.026 348.521 131.227 346.07 129.17C343.619 127.114 339.255 125.441 332.979 124.151L326.034 122.65C319.319 121.291 313.904 118.737 309.791 114.987C305.678 111.238 303.364 106.412 302.847 100.509C302.228 93.4259 304.492 87.1719 309.641 81.7469C314.79 76.3219 322.569 73.154 332.979 72.2432C337.165 71.8771 341.124 72.0173 344.857 72.6639C348.689 73.1939 352.401 74.2208 355.995 75.7448L356.55 93.2152L354.941 93.3561L348.433 83.8682C346.084 80.505 343.829 78.2151 341.668 76.9983C339.605 75.6648 336.588 75.1718 332.617 75.5192C328.968 75.8384 325.623 77.1584 322.582 79.4792C319.54 81.8 318.184 84.8385 318.513 88.5947C318.832 92.2436 320.427 95.0239 323.298 96.9355C326.276 98.8378 330.528 100.466 336.053 101.821L343.481 103.28C351.414 104.965 357.228 107.755 360.921 111.65C364.605 115.437 366.7 120.228 367.207 126.023C367.892 133.858 365.329 140.408 359.518 145.675C353.814 150.932 345.381 154.049 334.22 155.025Z" fill="#EEF8FC" style="fill:#EEF8FC;fill:color(display-p3 0.9333 0.9725 0.9882);fill-opacity:1;"/>
<path d="M380.962 59.6102C377.313 59.9294 374.102 59.0749 371.33 57.0465C368.655 54.9014 367.162 52.058 366.852 48.5165C366.533 44.8676 367.509 41.8083 369.78 39.3386C372.159 36.8595 375.173 35.4604 378.821 35.1411C382.47 34.8219 385.628 35.6812 388.293 37.7189C390.959 39.7567 392.451 42.6001 392.77 46.249C393.08 49.7905 392.104 52.8498 389.842 55.4268C387.571 57.8965 384.611 59.291 380.962 59.6102ZM369.685 149.49L369.544 147.88L371.741 147.039C373.831 146.207 375.195 145.114 375.834 143.761C376.58 142.398 376.859 140.643 376.671 138.497L372.263 88.1097C372.066 85.856 371.491 84.23 370.538 83.232C369.684 82.1172 368.165 81.439 365.981 81.1975L363.685 80.9117L363.544 79.3019L392.172 67.2267L393.923 68.6957L395.44 91.5972L399.384 136.672C399.571 138.818 400.097 140.502 400.961 141.725C401.932 142.937 403.466 143.776 405.561 144.242L407.213 144.584L407.354 146.194L369.685 149.49Z" fill="#EEF8FC" style="fill:#EEF8FC;fill:color(display-p3 0.9333 0.9725 0.9882);fill-opacity:1;"/>
<path d="M448.981 144.985C440.825 145.699 433.596 144.655 427.295 141.854C420.985 138.945 415.894 134.524 412.022 128.591C408.258 122.648 406.01 115.491 405.278 107.12C404.545 98.749 405.629 91.3547 408.528 84.9369C411.534 78.5098 415.897 73.3699 421.615 69.5172C427.442 65.655 434.165 63.3907 441.784 62.724C449.404 62.0574 456.365 63.1246 462.666 65.9257C468.957 68.6196 474.088 72.8749 478.057 78.6917C482.134 84.4991 484.543 91.642 485.285 100.12C486.027 108.599 485.006 116.096 482.224 122.611C479.54 129.01 475.343 134.19 469.633 138.15C464.022 141.993 457.138 144.272 448.981 144.985ZM448.7 141.766C452.456 141.437 455.367 140.101 457.433 137.757C459.499 135.414 460.775 131.463 461.262 125.905C461.857 120.338 461.717 112.564 460.844 102.583C459.961 92.4949 458.744 84.7611 457.192 79.3816C455.747 73.9928 453.804 70.3238 451.363 68.3745C448.921 66.4253 445.822 65.615 442.066 65.9436C438.31 66.2723 435.345 67.6131 433.172 69.966C431.106 72.3096 429.776 76.265 429.181 81.8323C428.694 87.3901 428.892 95.2131 429.775 105.301C430.648 115.282 431.807 122.967 433.252 128.356C434.804 133.735 436.801 137.399 439.242 139.349C441.791 141.289 444.943 142.094 448.7 141.766Z" fill="#EEF8FC" style="fill:#EEF8FC;fill:color(display-p3 0.9333 0.9725 0.9882);fill-opacity:1;"/>
<path d="M489.325 139.022L489.184 137.413L491.381 136.571C495.043 135.17 496.692 132.376 496.325 128.19L491.917 77.8035C491.711 75.4425 491.185 73.7582 490.34 72.7507C489.485 71.6359 487.966 70.9578 485.782 70.7163L483.311 70.2836L483.17 68.6738L509.881 56.9286L511.631 58.3975L513.764 67.9437C517.229 64.2881 521.229 61.1806 525.763 58.6211C530.298 56.0615 534.872 54.5799 539.487 54.1761C546.57 53.5564 552.159 55.014 556.253 58.549C560.455 62.0745 562.903 67.8081 563.598 75.7498L567.654 122.112C568.02 126.298 570.289 128.749 574.461 129.465L575.952 129.821L576.093 131.431L538.102 134.755L537.961 133.145L539.997 132.318C543.65 130.809 545.298 128.015 544.942 123.937L540.449 72.5843C539.848 65.7158 536.113 62.582 529.245 63.1829C524.522 63.596 519.578 66.4077 514.41 71.6181L519.199 126.352C519.565 130.537 521.673 133.002 525.523 133.747L527.014 134.103L527.155 135.713L489.325 139.022Z" fill="#EEF8FC" style="fill:#EEF8FC;fill:color(display-p3 0.9333 0.9725 0.9882);fill-opacity:1;"/>
</svg>
