<svg width="620" height="465" viewBox="0 0 620 465" fill="none" xmlns="http://www.w3.org/2000/svg">
<path d="M476.549 333.678V327.671L155.011 327.86V339.983L476.549 339.758V333.678ZM179.185 151.358V140.854L157.231 141.06C154.44 141.06 154.599 140.459 154.599 136.82L154.833 122.462L143.741 122.271C140.336 129.933 136.106 134.989 133.7 135.985L113.122 145.083V151.559L120.824 151.75C124.244 151.75 125.647 151.559 125.647 155.603V198.195C125.647 211.129 132.682 220.625 150.844 221.051C164.495 221.432 172.782 215.365 178.597 209.696L177.004 204.245C174.563 205.887 172.589 207.292 169.331 207.292C153.833 207.292 154.25 195.162 154.25 184.466V155.609C154.25 151.36 154.599 151.36 157.45 151.36L179.185 151.358ZM221.904 220.03C239.647 219.201 256.747 215.371 256.747 198.206C256.747 185.721 243.075 177.813 228.576 171.555C219.279 167.716 205.805 162.076 205.805 157.607C205.805 152.377 216.065 142.262 225.931 150.34L243.075 164.698L250.936 163.057L246.521 141.681C242.472 141.872 239.653 142.086 224.927 139.63C206.789 137.024 185.246 146.125 185.246 163.057C185.246 174.412 201.586 182.265 214.491 187.509C221.526 190.531 234.032 194.991 234.032 201.848C234.032 208.472 222.324 210.332 215.69 210.332C204.405 210.332 191.896 195.168 191.896 195.168H184.471L188.49 217.818C189.864 216.587 194.95 216.764 195.959 217.202C199.557 218.582 212.639 220.631 221.904 220.03ZM267.226 198.405C267.226 210.933 264.018 217.583 253.926 218.169L254.175 220.215C271.04 220.023 288.229 220.215 304.7 219.834L304.889 218.777C297.276 218.777 291.4 210.704 291.4 200.652V166.912C291.4 158.605 301.476 153.36 308.325 153.975C318.966 154.977 324.84 161.828 324.84 167.914V201.035C324.84 211.137 321.821 217.385 313.969 217.977V219.838H360.283V218.415C353.431 217.58 348.611 211.304 348.611 201.84V167.067C348.611 159.639 355.05 154.583 366.551 154.394C376.628 154.189 382.659 161.676 382.659 168.752V200.223C382.659 210.934 379.442 217.585 371.403 218.42V219.842C388.313 220.031 402.198 220.031 418.903 219.842V218.786C410.063 218.786 407.052 212.955 407.052 200.664V165.892C407.052 154.391 400.804 140.65 383.273 140.65C371.403 140.65 362.68 146.466 357.71 148.166C354.276 149.514 351.85 151.155 351.031 151.155C349.458 151.155 347.653 150.144 345.404 147.726C341.166 143.239 333.535 140.65 325.454 140.65C315.172 140.65 304.893 146.466 300.038 148.166C299.468 148.327 295.858 150.144 295.42 150.144C294.63 150.144 291.4 150.144 291.4 149.763C291.4 140.049 292.014 144.884 291.618 138.027H284.949C282.967 138.027 279.499 141.675 275.48 143.243C270.638 145.309 260.967 145.095 256.977 146.115V152.974L267.412 154.982V168.323L267.226 198.405ZM466.2 139.831C436.385 139.831 413.614 155.385 413.614 182.475C413.614 205.304 434.352 221.431 462.165 221.431C483.328 221.431 500.845 206.089 505.865 196.392C505.865 193.387 502.856 192.149 500.05 192.149C495.197 199.621 481.508 205.304 475.889 205.065C442.231 203.849 436.793 190.325 436.385 176.201C435.756 160.848 452.3 147.499 466.403 148.54C474.633 149.117 477.482 162.619 484.703 167.489C486.967 168.744 492.179 168.509 495.62 167.914C498.237 167.489 505.251 165.887 505.251 159.825C505.251 154.788 499.009 149.115 493.005 145.482C486.967 142.685 473.448 139.831 466.2 139.831Z" fill="#E60012" style="fill:#E60012;fill:color(display-p3 0.9020 0.0000 0.0706);fill-opacity:1;"/>
</svg>
