<svg width="620" height="465" viewBox="0 0 620 465" fill="none" xmlns="http://www.w3.org/2000/svg">
<g clip-path="url(#clip0_331_543)">
<path d="M404.797 62.0234C410.685 62.0234 415.446 66.7398 415.446 72.5727V392.124C415.446 397.952 410.685 402.673 404.797 402.673H214.097C208.215 402.673 203.453 397.952 203.453 392.124V72.5727C203.453 66.7398 208.215 62.0234 214.097 62.0234H404.797Z" fill="white" style="fill:white;fill-opacity:1;"/>
<path d="M207.591 109.394H411.445V391.485C411.445 393.831 411.045 395.282 409.465 396.855C407.75 398.562 406.245 398.715 403.53 398.715L213.678 398.734C212.182 398.734 211.035 398.256 209.796 397.208C208.263 395.892 207.591 394.251 207.591 392.515V109.394Z" fill="#FFF200" style="fill:#FFF200;fill:color(display-p3 1.0000 0.9490 0.0000);fill-opacity:1;"/>
<path d="M411.445 95.2017H207.591V109.694H411.445V95.2017Z" fill="#ED1C24" style="fill:#ED1C24;fill:color(display-p3 0.9294 0.1098 0.1412);fill-opacity:1;"/>
<path d="M411.445 80.6802H207.591V95.1733H411.445V80.6802Z" fill="white" style="fill:white;fill-opacity:1;"/>
<path d="M213.354 65.939H405.549C408.627 65.939 411.466 68.91 411.466 71.8097V81.0614H207.591L207.61 72.9251V72.2481C207.61 68.9677 210.134 66.2632 213.354 65.939Z" fill="#009A4E" style="fill:#009A4E;fill:color(display-p3 0.0000 0.6039 0.3059);fill-opacity:1;"/>
<path d="M404.797 62.0234C410.685 62.0234 415.446 66.7398 415.446 72.5727V392.124C415.446 397.952 410.685 402.673 404.797 402.673H214.097C208.215 402.673 203.453 397.952 203.453 392.124V72.5727C203.453 66.7398 208.215 62.0234 214.097 62.0234H404.797ZM404.797 66.2345H214.097C210.563 66.2345 207.706 69.0766 207.706 72.5727V392.124C207.706 395.624 210.563 398.447 214.097 398.447H404.797C408.332 398.447 411.189 395.624 411.189 392.124V72.5727C411.189 69.0772 408.332 66.2345 404.797 66.2345Z" fill="black" style="fill:black;fill-opacity:1;"/>
<path d="M305.699 127.297C305.699 127.297 305.57 128.527 305.29 129.248C305.013 129.915 304.294 130.364 304.342 130.812C304.389 131.25 304.856 131.78 305.58 132.146C306.29 132.518 306.575 132.805 307.304 132.991C307.98 133.158 308.838 133.654 309.08 133.086C309.324 132.509 308.957 131.808 308.547 131.136C307.833 129.963 307.471 129.676 306.418 128.064C306.194 127.717 306.018 127.344 305.699 127.297Z" fill="black" style="fill:black;fill-opacity:1;"/>
<path d="M300.359 254.033C300.431 253.823 302.117 254.892 302.993 255.407C304.836 256.513 305.665 257.171 307.294 258.392C308.585 259.374 309.208 259.88 310.504 260.996C312.094 262.369 312.952 263.542 313.381 263.276C314 262.532 312.367 260.357 310.923 259.175C309.518 258.01 308.066 257.067 306.946 256.332C305.503 255.368 305.374 255.149 303.217 253.699C300.897 252.145 298.898 250.19 298.898 250.19L296.644 248.416L293.116 245.435L289.191 241.815L286.229 238.51C286.229 238.51 283.924 235.687 283.557 235.143C283.186 234.604 282.1 232.858 281.205 231.381C280.404 230.055 278.852 227.995 278.709 227.818C277.871 226.802 275.956 227.213 273.731 225.901C271.031 224.304 270.378 222.844 270.378 222.844C270.378 222.844 270.278 222.63 270.173 222.516C270.073 222.396 269.869 222.248 269.869 222.248L268.454 221.261L267.644 220.727C267.644 220.727 267.03 220.217 266.258 219.887C265.482 219.544 263.753 218.538 263.753 218.538L260.662 216.563C260.662 216.563 259.452 215.591 259.052 215.266C258.643 214.956 257.881 214.513 257.881 214.513C257.881 214.513 257.395 214.27 257.247 214.26C257.1 214.25 256.457 214.193 256.457 214.193C256.457 214.193 255.862 214.036 255.257 214.747C254.652 215.462 254.8 215.08 255.785 219.106C256.176 220.688 256.138 226.273 256.557 227.975C257.09 230.159 258.624 232.983 258.781 233.317C258.934 233.646 259.043 234.867 259.043 234.867C259.043 234.867 258.977 235.854 259.081 236.479C259.548 239.364 263.763 237.466 264.692 241.424C265.607 245.33 264.144 249.226 264.144 249.226C264.144 249.226 263.239 251.163 261.958 251.468C260.682 251.764 258.701 248.931 257.267 246.637C255.853 244.381 254.696 241.424 254.324 240.485C253.953 239.545 253.757 239.34 253.329 238.658C252.695 237.642 252.186 237.829 251.476 236.226C250.761 234.624 251.395 233.98 251.076 232.583C250.89 231.811 250.724 231.724 250.481 230.618C250.247 229.517 249.933 226.011 249.933 226.011L249.485 222.749C249.485 222.749 249.328 221.261 249.124 220.326C248.414 217.064 248.166 213.907 248.166 213.907L248.033 212.61L247.986 211.271C247.986 211.271 247.943 210.626 248.1 209.964C248.257 209.301 248.577 208.753 248.577 208.753C248.577 208.753 249.234 207.651 249.348 207.374C249.458 207.112 250.801 205.548 250.801 205.548C250.801 205.548 251.506 204.961 252.654 204.26C253.807 203.559 254.84 203.607 254.84 203.607C254.84 203.607 255.145 203.578 257.184 203.831C259.222 204.084 263.413 205.2 264.471 205.472C265.513 205.754 266.762 206.192 267.571 206.645C269.9 207.913 270.605 207.375 268.752 205.921C267.504 204.943 267.152 204.504 266.147 203.589C265.299 202.806 264.632 202.286 263.999 201.566C263.366 200.832 261.561 198.166 261.561 198.166L260.432 196.497C260.432 196.497 259.827 195.811 259.727 195.763C259.632 195.705 259.327 195.472 259.327 195.472C259.327 195.472 258.579 195.51 257.807 195.362C257.026 195.205 256.664 196.302 256.664 196.302C256.664 196.302 254.987 199.435 253.283 201.352C250.521 204.466 248.539 206.584 247.525 208.243C246.101 210.542 246.415 213.06 245.682 214.224C245.253 214.906 245.02 215.006 244.786 215.602C244.072 217.41 246.667 218.401 246.072 220.404C245.124 223.581 237.695 226.723 236.708 226.198C235.684 225.66 236.523 221.363 236.866 219.975C237.218 218.578 238.261 216.518 238.357 216.413C238.447 216.312 238.7 215.826 238.775 215.416C238.856 215.006 238.885 214.076 238.932 213.561C238.98 213.041 239.194 212.221 239.194 212.221C239.194 212.221 239.223 212.044 239.88 210.619C240.542 209.184 242.961 205.845 244.695 202.659C245.838 200.58 246.314 199.321 247.457 197.237C248.51 195.325 250.315 192.406 250.315 192.406C250.315 192.406 251.077 190.918 251.434 190.365C251.796 189.797 252.558 188.724 253.272 187.665C253.992 186.611 254.168 185.82 255.106 184.952C255.882 184.227 256.411 183.841 257.425 183.516C258.935 183.015 259.969 183.283 261.512 183.712C263.112 184.151 264.212 184.885 265.26 185.753C266.303 186.631 267.079 187.599 267.079 187.599L267.589 188.352L267.903 188.538L268.875 189.163L271.099 190.636C271.099 190.636 276.376 194.232 276.672 194.428C276.953 194.614 277.9 195.391 278.086 195.453C278.282 195.51 279.687 193.984 282.445 192.082C285.635 189.864 286.764 190.031 287.822 189.454C288.865 188.877 289.293 188.4 290.113 187.58C291.351 186.34 291.361 185.677 292.766 183.946C294.181 182.22 295.504 181.251 295.504 181.251C295.504 181.251 295.699 181.056 298.22 178.204C300.734 175.362 301.849 173.211 301.849 173.211L303.23 170.44C303.23 170.44 305.23 166.134 305.873 164.431C306.521 162.724 306.521 162.156 306.521 162.156C306.521 162.156 306.616 161.708 306.13 160.84C305.63 159.976 305.115 160.367 304.158 160.563C302.325 160.954 301.21 160.477 299.358 160.153C297.662 159.871 296.776 159.362 295.076 159.08C293.352 158.789 292.347 158.504 290.618 158.67C290.356 158.699 289.828 158.809 289.574 158.894C288.598 159.218 288.327 159.295 287.603 159.714C286.765 160.106 286.212 160.23 285.283 160.253C284.64 160.272 284.25 160.292 283.655 160.058C283.245 159.9 283.012 159.781 282.688 159.491C282.493 159.314 282.388 159.199 282.24 158.97C282.222 158.789 282.164 158.799 282.34 158.504C282.512 158.203 282.726 158.15 282.726 158.15L283.517 157.955C283.517 157.955 284.631 157.664 284.736 157.635C284.836 157.606 285.898 157.263 286.365 157.115C286.836 156.968 287.351 156.696 287.351 156.696C287.351 156.696 287.636 156.238 287.527 155.976C287.389 155.68 286.755 155.652 286.755 155.652C286.755 155.652 285.869 155.976 285.77 156.004C285.674 156.024 284.259 156.471 284.259 156.471C284.259 156.471 283.15 156.715 282.288 156.92C281.421 157.115 280.183 157.215 280.183 157.215L279.811 157.115C279.811 157.115 279.392 156.833 279.326 156.538C279.264 156.276 279.225 156.08 279.178 155.78C278.992 154.683 278.768 154.02 279.03 152.938C279.131 152.485 279.235 152.232 279.43 151.813C279.597 151.464 279.706 151.264 279.921 150.935L280.602 149.819L281.888 147.916C282.331 147.468 282.622 147.244 283.179 146.929C283.998 146.471 284.474 146.342 285.498 146.228C286.503 146.118 286.641 146.128 288.065 145.808C289.499 145.484 290.514 144.916 290.514 144.916C290.514 144.916 293.938 143.657 296.024 142.632C298.21 141.559 299.163 140.414 301.425 139.527C302.382 139.155 302.94 138.979 303.925 138.726C304.049 138.645 304.111 138.569 304.149 138.421C304.245 138.063 303.692 137.896 303.311 137.934C302.968 137.962 302.187 138.325 302.011 137.934C301.877 137.634 302.725 137.457 302.725 137.457C302.725 137.457 303.125 137.271 303.135 137.047C303.145 136.704 302.559 136.928 302.296 136.899C300.967 136.751 300.863 136.508 299.943 136.284C298.862 136.012 298.277 135.678 297.153 135.631C296.162 135.592 295.233 135.802 294.61 135.95C293.995 136.107 293.976 135.502 294.219 135.383C295.958 134.572 295.995 134.505 297.224 134.448C297.896 134.419 298.834 134.562 298.939 134.614C299.039 134.671 300.382 134.605 300.725 134.252C301.078 133.909 299.625 133.928 298.939 133.656C298.306 133.404 297.339 133.332 297.358 132.912C297.392 132.492 297.859 132.726 298.192 132.64C298.61 132.54 298.854 132.55 299.282 132.493C300.054 132.388 300.12 132.316 301.263 132.221C302.392 132.111 304.021 132.593 304.021 132.593C304.021 132.593 305.731 133.352 306.569 133.753C307.408 134.143 308.422 134.348 308.422 134.348C308.422 134.348 309.612 134.515 310.518 133.948C311.437 133.385 310.918 133.013 310.598 132.493C310.284 132.007 309.884 131.301 310.469 129.966C310.989 128.802 311.26 127.443 311.408 127.319C311.595 127.171 312.313 128.215 312.78 128.645C314.451 130.209 316.662 130.982 318.748 134.253C318.91 134.515 319.682 134.095 322.101 134.467C324.52 134.839 326.635 137.434 327.169 138.054C327.722 138.678 328.436 138.645 328.436 138.645L329.598 138.802L333.817 138.874C333.817 138.874 335.732 138.53 336.837 138.951C337.608 139.241 340.181 140.963 339.009 141.616C338.19 142.074 337.418 141.068 336.675 141.02C335.799 140.963 335.418 141.13 334.636 141.325C332.998 141.736 329.483 142.799 330.76 143.228C330.854 143.266 331.036 143.294 331.036 143.294L331.664 143.404C331.664 143.404 333.208 143.757 334.141 144.124C335.55 144.682 336.218 145.298 337.513 146.06C338.255 146.489 338.58 146.919 339.389 147.162C340.132 147.377 340.608 147.162 341.371 147.291C342.371 147.468 342.932 147.673 343.847 148.111C345.209 148.765 345.704 149.556 346.924 150.434C347.533 150.877 348.047 150.944 348.505 151.54C348.61 151.674 348.696 151.746 348.744 151.902C348.906 152.446 347.848 152.126 347.286 152.036C346.667 151.932 346.41 151.626 345.839 151.364C344.991 150.963 344.59 150.524 343.667 150.357C343 150.228 342.6 150.329 341.914 150.367C341.247 150.395 340.895 150.496 340.228 150.505C339.094 150.524 338.456 150.424 337.342 150.19C336.093 149.928 335.474 149.442 334.236 149.184C332.836 148.893 330.36 147.691 330.597 148.893C330.721 149.47 332.036 149.956 332.036 149.956C332.036 149.956 332.94 150.443 333.798 150.824C334.656 151.196 335.131 151.764 335.131 151.764L335.722 152.203C335.722 152.203 336.331 153.043 337.132 153.991C337.912 154.926 339.303 154.897 339.303 154.897C339.303 154.897 340.142 154.897 341.951 155.269C343.751 155.641 345.609 156.756 345.609 156.756C345.609 156.756 347.009 157.72 347.828 158.688C348.638 159.657 348.171 160.143 348.066 160.243C347.972 160.347 348.009 160.3 347.895 160.347C347.8 160.395 346.79 159.127 346.79 159.127L346.066 158.512C346.066 158.512 345.361 158.016 344.447 157.72C343.533 157.429 343.228 157.624 343.228 157.624C343.228 157.624 341.285 158.168 339.589 158.12C337.912 158.073 337.036 157.4 337.036 157.4L335.969 156.685C335.969 156.685 334.369 155.182 334.311 155.893C334.273 156.375 335.016 156.909 335.016 156.909C335.016 156.909 335.531 157.429 335.874 157.758C336.522 158.397 336.789 158.717 337.532 159.379C338.275 160.047 338.732 160.047 338.732 160.047C338.732 160.047 339.132 160.142 339.284 160.171C339.437 160.2 339.704 160.272 339.704 160.272C339.704 160.272 339.951 160.367 341.113 160.84C342.265 161.307 343.514 162.323 343.514 162.323C343.514 162.323 343.628 162.418 343.8 162.452C343.971 162.471 344.314 162.643 344.409 162.671C344.514 162.695 344.809 162.695 345.476 162.79C346.153 162.891 345.895 163.32 345.895 163.32L345.78 163.482L345.227 163.854C345.227 163.854 344.514 164.059 344.028 164.082C343.532 164.111 342.828 163.835 342.828 163.835L341.332 163.272C341.332 163.272 339.818 162.872 339.493 162.819C339.169 162.771 337.817 162.5 337.589 162.452C337.369 162.4 336.693 162.156 336.512 162.051C336.331 161.951 335.998 161.884 335.179 161.484C334.369 161.083 334.045 160.621 333.036 160.301C332.017 159.977 331.397 159.91 330.635 160.44C329.321 161.346 332.616 161.494 334.255 162.314C336.675 163.506 338.036 164.383 338.608 165.671C339.189 166.964 339.77 167.431 339.77 167.431C339.77 167.431 341.475 168.29 342.237 169.191C342.656 169.677 342.714 170.078 343.132 170.564C344.065 171.661 345.876 171.599 346.238 172.529C346.581 173.396 344.771 173.005 343.828 172.919C342.132 172.752 341.722 171.197 340.141 170.573C339.246 170.215 338.675 170.215 337.759 169.901C336.093 169.352 335.312 168.633 333.644 168.113C332.634 167.803 330.805 166.472 331.035 167.497C331.072 167.745 331.225 167.936 331.291 168.084C331.377 168.232 331.796 168.776 331.796 168.776C331.796 168.776 332.358 169.52 332.615 169.716C332.853 169.921 333.929 170.731 335.472 171.571C336.997 172.41 338.33 174.022 338.33 174.022C338.33 174.022 338.787 174.681 339.007 175.139C339.235 175.654 339.073 175.811 339.435 176.526C339.768 177.237 339.93 177.375 340.387 177.814C341.511 178.897 342.693 178.682 344.121 179.269C344.512 179.435 344.54 179.492 344.959 179.941C345.379 180.384 344.883 180.574 344.883 180.574C344.883 180.574 343.293 180.985 342.263 180.899C340.93 180.794 340.33 180.383 339.034 179.735C337.72 179.091 337.034 177.933 336.901 177.861C336.787 177.784 336.463 177.442 336.215 177.265C335.968 177.089 335.329 176.955 334.758 176.797C334.177 176.64 333.852 176.611 333.272 176.454C332.482 176.229 331.662 175.882 331.29 175.763C330.919 175.634 330.071 175.481 329.452 175.848C328.213 176.583 331.376 177.078 332.357 178.133C332.862 178.662 333.071 179.034 333.548 179.592C333.91 180.021 334.062 180.322 334.511 180.656C334.815 180.879 335.377 181.122 335.377 181.122C335.377 181.122 336.138 181.476 337.253 182.091C338.368 182.706 339.672 184.446 339.672 184.446L340.463 185.658L340.93 186.349L341.054 186.669L341.224 187.06C341.224 187.06 341.797 187.804 342.215 188.047C342.635 188.3 342.558 188.519 342.558 188.519C342.558 188.519 342.511 188.672 342.215 188.839C341.93 189.016 341.767 188.867 341.349 188.743C340.93 188.624 340.654 188.224 340.292 187.933C339.911 187.627 339.511 186.888 338.834 186.469C338.234 186.107 337.454 185.978 337.148 185.882C336.853 185.773 336.11 185.306 335.815 185.177C335.529 185.062 334.758 184.709 334.758 184.709C334.758 184.709 333.272 183.88 332.452 183.656C331.633 183.426 332.156 183.927 332.156 183.927C332.156 183.927 332.891 185.072 333.595 185.529C334.51 186.135 335.795 186.67 335.376 187.16C335.09 187.48 334.709 187.365 334.29 187.317C333.605 187.237 332.776 186.416 332.776 186.416C332.776 186.416 332.433 186.192 330.9 185.705C329.375 185.205 329.937 186.044 330.29 186.497C330.633 186.936 331.1 187.189 331.1 187.189L332.139 187.656L332.615 187.804C332.615 187.804 333.034 187.88 334.415 188.204C335.796 188.519 336.559 189.192 336.559 189.192C336.559 189.192 337.301 189.883 338.33 190.646C339.377 191.419 340.407 191.615 340.978 191.691C341.55 191.762 341.53 192.163 341.53 192.163C341.53 192.163 341.606 192.53 341.569 192.649C341.55 192.773 341.426 192.874 341.302 192.874C341.187 192.874 341.131 192.922 340.979 193.003C340.826 193.079 340.236 193.175 340.236 193.175C340.236 193.175 338.693 193.127 337.473 192.826C336.273 192.53 335.206 191.691 335.091 191.644C334.997 191.596 333.872 190.972 333.091 190.724C332.339 190.471 331.129 190.581 330.995 190.628C330.872 190.676 330.452 190.743 329.739 190.953C329.015 191.144 329.919 191.419 329.919 191.419L330.434 191.467L331.662 191.563C331.662 191.563 332.939 191.71 334.015 192.111C335.091 192.502 335.797 193.294 336.511 194.018C337.225 194.729 338.016 195.196 338.016 195.196L338.588 195.568L338.883 195.792L338.959 195.988C338.959 195.988 338.931 196.088 338.883 196.211C338.836 196.34 338.655 196.435 338.655 196.435C338.655 196.435 338.388 196.387 338.274 196.387C338.14 196.387 337.331 195.958 336.731 195.696C336.112 195.425 335.797 195.167 335.13 195.004C334.559 194.866 333.797 194.804 333.625 194.857C333.454 194.904 332.196 195.081 331.225 195.147C330.254 195.224 329.415 195.238 328.272 195.1C326.643 194.904 324.481 193.616 324.204 193.974C323.643 194.728 325.357 194.942 326.196 195.424C327.339 196.087 329.32 196.683 329.32 196.683C329.32 196.683 330.768 197.003 331.615 197.403C333.473 198.267 334.035 199.545 335.53 200.889C336.35 201.643 337.016 201.967 338.121 202.129C339.074 202.268 339.055 202.153 340.559 201.858C342.074 201.558 342.989 200.122 343.427 200.647C343.513 200.747 343.475 200.842 343.455 200.99C343.427 201.138 343.304 201.41 343.304 201.41C343.304 201.41 343.132 201.653 342.865 201.93C342.589 202.201 341.551 202.769 341.008 202.993C340.465 203.217 339.132 203.589 337.455 203.537C335.778 203.489 333.417 202.201 333.417 202.201L331.721 201.486C331.721 201.486 330.94 201.119 330.407 200.918C328.997 200.384 328.101 200.432 326.653 200.05C325.758 199.807 325.168 199.554 324.358 199.388C323.539 199.212 324.006 199.536 324.082 199.65C324.462 200.169 324.976 200.336 325.625 200.637C326.482 201.057 327.082 200.971 327.958 201.343C328.94 201.739 329.797 202.297 330.34 202.65C330.874 202.994 331.274 203.385 331.798 203.929L333.598 205.474C333.598 205.474 334.017 205.817 334.065 205.96C334.112 206.108 334.312 206.48 334.217 207.076C334.112 207.673 333.626 207.253 333.626 207.253L333.15 206.948L332.673 206.509L331.921 205.885C331.921 205.885 331.274 205.297 330.158 204.73C329.054 204.153 327.72 204.01 327.72 204.01C327.72 204.01 326.539 203.834 326.577 204.206C326.634 204.573 326.9 204.606 327.833 204.849C328.776 205.093 329.396 205.57 329.396 205.57C329.396 205.57 330.358 206.285 331.053 207.076C331.739 207.869 331.939 208.636 331.939 208.636C331.939 208.636 332.291 209.285 333.178 210.143C334.064 211.011 334.53 210.71 334.482 211.13C334.434 211.55 334.044 211.626 334.044 211.626C334.044 211.626 333.815 211.607 333.721 211.607C333.625 211.607 333.397 211.478 333.149 211.383C332.901 211.287 331.968 210.639 331.968 210.639C331.968 210.639 330.501 209.447 330.339 209.332C330.158 209.203 328.777 208.169 328.777 208.169C328.777 208.169 327.958 207.644 327.376 207.348C326.776 207.058 325.986 206.753 325.538 206.604C325.1 206.461 324.28 206.413 324.28 206.413C324.28 206.413 323.3 206.266 322.7 206.041C321.757 205.679 320.661 204.673 320.537 204.625C320.404 204.573 319.528 204.272 319.356 204.301C319.185 204.32 318.785 205.979 318.69 206.938C318.29 210.954 319.356 213.619 321.014 217.301C323.404 222.652 330.062 229.305 330.062 229.305C330.062 229.305 331.739 230.254 332.444 230.821C334.435 232.381 337.731 234.589 340.655 237.507C343.151 240.011 346.466 244.45 346.466 244.45C346.466 244.45 348.39 247.131 349.286 249.029C350.372 251.356 351.248 254.905 351.248 254.905C351.248 254.905 351.325 255.515 351.382 255.649C351.458 255.772 351.629 255.935 351.744 255.935L352.905 255.973C353.02 255.973 354.344 255.878 355.221 255.658C356.087 255.439 358.145 254.494 359.516 253.78C360.869 253.054 362.498 251.681 362.498 251.681C362.498 251.681 362.812 251.414 364.394 249.64C365.994 247.866 367.023 245.205 367.413 244.199C367.794 243.202 368.109 241.28 368.337 237.999C368.584 234.704 368.137 231.231 368.137 231.231C368.137 231.231 367.537 226.386 367.175 224.736C366.813 223.096 365.937 220.406 365.937 220.406C365.937 220.406 365.328 218.012 365.137 216.501C364.936 214.989 364.908 212.528 364.908 212.528C364.908 212.528 364.908 211.021 365.393 208.236C365.898 205.465 367.594 202.671 367.594 202.671C367.594 202.671 368.071 201.731 369.9 199.537C371.776 197.291 372.376 196.938 374.224 195.598C375.691 194.544 377.586 192.846 378.207 193.247C378.892 193.676 377.538 194.534 377.082 194.983C375.929 196.127 373.777 198.149 372.033 201.196C370.509 203.834 369.938 205.579 369.558 207.301C369.176 209.018 369.339 210.906 369.386 211.55C369.444 212.194 369.796 211.961 369.796 211.961C369.796 211.961 373.501 208.98 375.511 206.724C377.692 204.283 379.635 199.938 380.397 199.9C380.911 199.866 381.15 201.03 381.026 201.569C380.55 203.824 380.389 204.106 379.654 205.603C378.816 207.32 378.036 208.083 376.873 209.667C375.653 211.326 375.054 211.961 374.073 214.159C372.654 217.321 373.482 219.763 373.482 219.763C373.482 219.763 373.654 221.246 374.32 221.227C375.436 221.188 377.883 218.093 379.483 215.56C380.665 213.705 381.093 211.559 381.865 210.434C382.57 209.437 383.19 212.055 382.885 213.601C382.532 215.436 381.627 217.087 379.636 219.686C377.693 222.222 377.75 224.636 377.75 224.636C377.75 224.636 377.55 225.738 377.388 228.141C377.236 230.535 377.922 234.17 377.922 234.17C377.922 234.17 378.53 237.207 378.655 239.51C378.77 241.828 378.693 247.089 376.53 251.185C375.673 252.825 373.835 255.096 373.835 255.096C373.835 255.096 372.415 256.555 371.253 257.404C370.09 258.253 367.3 259.579 367.3 259.579C367.3 259.579 365.367 260.246 365.1 260.304C364.814 260.38 364.643 260.618 364.643 260.618C364.643 260.618 364.814 260.991 364.89 261.143C364.956 261.297 365.499 262.631 365.499 262.631C365.499 262.631 366.08 264.519 366.299 266.017C366.518 267.514 366.261 267.858 366.052 269.002C365.842 270.1 365.367 269.593 365.242 271.749C365.137 273.657 365.995 274.61 365.842 276.748C365.776 277.682 364.718 275.565 364.204 274.669C363.118 272.722 363.375 269.727 363.356 268.984C363.327 268.24 363.269 267.419 362.994 266.485C362.661 265.263 362.155 264.32 361.594 263.576C361.022 262.841 360.422 262.422 360.222 262.498C360.022 262.565 360.003 262.956 360.003 263.147C359.993 263.357 360.393 264.062 360.479 264.215C360.583 264.358 361.298 265.665 361.298 265.665C361.298 265.665 361.612 266.676 361.736 268.642C361.86 270.587 361.259 273.01 361.259 273.01C361.259 273.01 360.478 275.728 359.659 277.331C358.744 279.095 356.716 281.499 356.716 281.499C356.716 281.499 355.258 282.834 354.162 285.028C353.087 287.221 354.011 288.175 353.61 288.461C353.191 288.738 352.333 287.193 352.105 286.153C351.886 285.18 351.99 284.722 352.391 283.634C352.762 282.585 353.639 281.068 353.639 281.068L354.944 278.846C354.944 278.846 356.525 275.832 357.021 273.638C357.516 271.464 356.944 269.042 356.944 269.042C356.944 269.042 356.878 268.24 356.335 268.278C355.782 268.307 355.402 268.784 355.173 269.366C354.725 270.567 355.364 270.348 354.677 272.351C354.144 273.925 353.991 273.715 353.705 274.649C353.362 275.765 353.182 276.91 353.201 277.607C353.23 278.293 352.849 278.007 352.849 278.007C352.849 278.007 352.182 276.767 352.182 275.222C352.182 274.383 352.221 273.906 352.316 273.066C352.468 271.721 353.021 269.662 353.021 269.662C353.021 269.662 353.611 267.63 353.487 265.779C353.346 263.91 352.697 263.567 352.697 263.567C352.697 263.567 352.526 263.319 351.802 263.357C351.088 263.414 351.126 264.702 351.126 264.702C351.126 264.702 350.907 266.543 350.621 267.687C349.831 270.844 348.774 272.504 346.906 275.165C345.211 277.568 342.915 279.686 341.762 280.678C340.619 281.69 337.094 284.255 337.094 284.255L332.961 287.011C332.961 287.011 331.322 288.614 330.579 290.521C329.817 292.42 329.855 293.907 330.293 295.653C330.732 297.408 331.36 298.209 331.693 298.704C332.017 299.182 332.656 300.04 332.865 301.052C332.999 301.671 332.904 302.043 332.942 302.672C332.981 303.226 333.056 303.531 333.037 304.094C333.018 304.971 333.179 305.591 332.675 306.306C332.313 306.85 331.322 307.327 331.322 307.327C331.322 307.327 330.199 307.822 329.531 308.232C322.5 312.477 320.006 315.233 316.043 319.964C314.785 321.481 315.71 321.386 314.367 323.179C313.552 324.248 311.671 324.248 310.99 325.525C310.042 327.27 313.123 328.987 309.565 330.523C304.979 332.507 297.087 331.086 296.93 330.466C296.501 328.768 298.473 326.804 299.173 326.021C302.383 322.511 305.25 322.425 306.303 319.516C306.531 318.896 306.441 318.363 308.998 316.464C310.794 315.138 317.967 309.73 321.101 306.125C322.177 304.885 323.101 304.065 323.568 302.729C324.045 301.374 323.101 300.526 323.101 300.526L321.815 298.427L319.348 294.011C319.348 294.011 318.31 291.665 317.748 290.31C317.167 288.955 316.09 285.312 316.09 285.312C316.09 285.312 315.3 282.031 315.166 279.894C314.928 276.06 315.452 273.829 316.463 270.109C317.767 265.282 320.729 263.26 321.911 258.472C322.254 257.08 322.33 254.695 321.625 254.809C320.958 254.933 320.901 256.812 320.387 258.072C318.482 262.822 315.967 264.901 314.586 269.822C313.662 273.151 313.281 275.126 313.29 278.578C313.3 280.552 313.224 280.19 313.728 283.615C313.928 284.873 314.233 285.55 314.605 286.78C314.871 287.658 315.586 289.299 315.586 289.299C315.586 289.299 316.567 291.464 316.91 292.98C317.014 293.505 317.149 293.8 317.11 294.325C317.043 295.231 317.205 295.423 316.767 296.242C316.224 297.263 316.557 297.864 314.824 298.245C313.281 298.569 310.128 297.539 310.128 297.539C310.128 297.539 297.168 293.61 288.895 294.744C287.257 294.964 286.376 295.565 284.728 295.536C283.228 295.517 282.466 294.343 280.965 294.792C280.661 294.878 280.565 295.097 280.289 295.279C278.098 296.805 279.775 299.342 274.003 298.025C270.459 297.214 266.168 295.041 266.91 293.676C267.905 291.864 269.239 291.568 272.04 290.414C275.036 289.193 279.532 289.536 280.418 289.479C281.499 289.393 283.052 288.64 284.985 288.592C288.329 288.534 288.924 288.935 288.924 288.935L294.6 289.44L305.465 289.575C305.465 289.575 307.408 289.431 308.179 289.278C308.961 289.125 309.575 287.59 310.003 286.855C310.422 286.131 309.984 285.062 309.984 285.062L309.661 284.557L308.627 282.888L306.717 279.664L304.598 275.429C304.598 275.429 303.212 272.483 302.474 270.546C301.74 268.619 301.312 267.532 300.826 265.539C300.316 263.488 300.002 261.828 299.935 260.179C299.855 257.81 299.698 255.969 300.359 254.033Z" fill="black" style="fill:black;fill-opacity:1;"/>
<path d="M370.886 250.104C373.171 247.166 373.392 244.438 373.524 240.594C373.629 237.8 372.573 233.493 372.573 233.493L372.429 233.178C372.429 233.178 372.029 232.658 371.782 233.345C371.82 233.952 371.897 234.438 371.897 234.438L372.03 239.984C372.03 239.984 371.858 242.779 370.906 245.659C369.306 250.524 365.058 252.689 364.439 254.444C363.38 257.352 368.152 253.642 370.886 250.104Z" fill="white" style="fill:white;fill-opacity:1;"/>
<path d="M346.92 259.079C346.92 259.079 345.987 259.347 345.967 260.271C345.949 261.197 346.196 261.998 346.167 263.114C346.149 264.535 344.844 266.175 345.682 266.71C347.12 267.626 348.358 261.178 347.92 260.224C347.482 259.269 347.054 259.069 346.92 259.079Z" fill="white" style="fill:white;fill-opacity:1;"/>
<path d="M330.784 303.783C330.784 303.783 330.517 303.641 329.994 303.841C329.48 304.04 329.517 304.575 329.517 304.575C329.517 304.575 329.412 305.148 329.832 305.205C330.251 305.282 330.937 304.251 330.937 304.137C330.937 304.022 330.784 303.783 330.784 303.783Z" fill="white" style="fill:white;fill-opacity:1;"/>
<path d="M315.601 314.59C315.601 314.59 315.448 314.743 315.582 314.847C315.724 314.972 315.925 314.818 315.925 314.818C315.925 314.818 318.544 312.768 320.097 311.328C321.735 309.783 324.098 307.122 324.098 307.122C324.098 307.122 324.26 306.922 324.079 306.75C323.887 306.578 323.44 306.845 323.069 307.016C322.745 307.188 322.554 307.369 322.307 307.57C322.079 307.78 321.297 308.581 321.297 308.581L319.278 310.546L318.001 311.748L316.763 312.93L316.249 313.522C316.249 313.522 316.115 313.751 316.078 313.808C316.039 313.874 315.906 314.046 315.906 314.046C315.906 314.046 315.715 314.228 315.715 314.285C315.715 314.332 315.658 314.38 315.658 314.438C315.639 314.513 315.601 314.59 315.601 314.59Z" fill="white" style="fill:white;fill-opacity:1;"/>
<path d="M311.071 317.567C311.071 317.567 310.79 317.338 310.348 317.557C309.9 317.795 309.424 318.405 309.385 318.472C309.343 318.559 309.099 318.883 309.266 319.169C309.433 319.455 310 319.035 310.085 319.016C310.166 319.016 310.905 318.425 310.905 318.425C310.905 318.425 311.333 318.157 311.071 317.567Z" fill="white" style="fill:white;fill-opacity:1;"/>
<path d="M302.398 326.36C302.398 326.36 302.027 325.673 301.541 325.959C301.055 326.246 300.789 326.341 300.341 326.961C300.265 327.065 299.784 327.686 299.698 327.848C299.612 328.001 299.131 328.917 300.108 328.983C301.784 329.078 300.683 328.001 301.26 327.581C301.727 327.257 302.603 327.343 302.613 326.999C302.622 326.656 302.398 326.36 302.398 326.36Z" fill="white" style="fill:white;fill-opacity:1;"/>
<path d="M272.679 291.221C272.679 291.221 271.674 291.47 271.598 291.813C271.517 292.176 272.183 292.519 272.288 292.538C272.407 292.557 272.631 292.824 273.302 292.366C273.964 291.918 273.936 291.536 273.936 291.536C273.936 291.536 274.326 291.079 272.679 291.221Z" fill="white" style="fill:white;fill-opacity:1;"/>
<path d="M289.025 290.687C289.025 290.687 289.015 290.315 288.305 290.364C287.581 290.402 287.429 290.535 287.41 290.65C287.386 290.754 287.448 290.936 288.091 290.993C288.744 291.031 289.005 290.992 289.025 290.687Z" fill="white" style="fill:white;fill-opacity:1;"/>
<path d="M304.48 291.136C303.179 291.126 303.589 291.165 302.789 291.203C301.337 291.279 300.546 291.221 299.112 291.126C297.102 290.993 293.992 290.497 293.992 290.497C293.992 290.497 293.602 290.402 293.444 290.659C293.301 290.897 293.825 291.45 294.292 291.594C296.84 292.386 296.978 292.252 298.712 292.28C299.679 292.29 300.217 292.194 301.179 292.137C302.398 292.043 302.965 292.233 304.294 291.88C304.641 291.794 304.975 291.146 304.48 291.136Z" fill="white" style="fill:white;fill-opacity:1;"/>
<path d="M313.186 288.551C313.186 288.551 312.924 288.247 312.386 288.513C311.853 288.771 311.529 289.352 311.529 289.352C311.529 289.352 311.277 289.753 311.815 289.696C312.339 289.62 312.81 289.391 312.934 289.315C313.072 289.237 313.462 288.875 313.186 288.551Z" fill="white" style="fill:white;fill-opacity:1;"/>
<path d="M305.609 183.915C305.609 183.915 309.285 180.467 311.919 175.908C313.48 173.189 314.161 166.861 312.819 168.434C312.213 169.155 311.48 172.436 310.318 174.867C308.661 178.33 305.122 183.233 305.122 183.233C305.122 183.233 304.361 184.864 305.609 183.915Z" fill="white" style="fill:white;fill-opacity:1;"/>
<path d="M290.911 192.675C290.911 192.675 290.52 192.98 290.697 193.467C290.882 193.963 291.63 193.591 291.63 193.591C291.63 193.591 293.331 192.947 295.112 192.881C296.898 192.804 299.375 193.338 299.375 193.338C299.375 193.338 300.555 193.662 300.751 193.739C300.946 193.82 301.589 194.13 301.699 194.168C301.794 194.21 302.409 194.511 302.752 194.201C303.095 193.886 300.604 191.621 298.061 191.278C293.826 190.701 291.045 192.527 291.045 192.527L290.911 192.675Z" fill="white" style="fill:white;fill-opacity:1;"/>
<path d="M273.47 207.607C273.769 207.865 275.184 205.165 276.365 203.458C277.232 202.209 278.814 200.12 278.814 200.12C278.814 200.12 279.528 199.161 278.318 199.696C277.828 199.915 276.485 200.94 275.537 202.824C274.736 204.426 273.155 207.354 273.47 207.607Z" fill="white" style="fill:white;fill-opacity:1;"/>
<path d="M263.687 195.88C263.687 195.88 263.382 196.924 264.602 198.231C265.83 199.543 266.145 200.624 266.926 199.843C267.14 199.628 266.164 197.864 265.669 197.373C265.159 196.886 264.797 196.485 264.797 196.485L264.478 196.223L264.068 195.994L263.835 195.899C263.835 195.899 263.773 195.842 263.687 195.88Z" fill="white" style="fill:white;fill-opacity:1;"/>
<path d="M259.724 185.865C259.724 185.865 258.4 186.113 258.076 186.756C257.747 187.4 259.6 187.009 259.6 187.009C259.6 187.009 260.828 187.076 260.858 186.609C260.886 186.132 260.701 186.084 259.724 185.865Z" fill="white" style="fill:white;fill-opacity:1;"/>
<path d="M238.687 220.774C238.011 220.579 237.897 221.91 237.806 222.338C237.73 222.767 238.111 223.626 238.268 223.626C238.42 223.616 238.958 222.777 238.987 222.367C239.016 221.947 239.283 220.96 238.687 220.774Z" fill="white" style="fill:white;fill-opacity:1;"/>
<path d="M260.534 246.775C260.534 246.775 259.324 245.816 259.139 246.198C258.958 246.579 260.134 248.262 260.134 248.262C260.134 248.262 260.496 248.816 261.053 248.567C261.6 248.301 261.405 247.69 261.405 247.69C261.405 247.69 261.034 246.908 260.534 246.775Z" fill="white" style="fill:white;fill-opacity:1;"/>
<path d="M251.414 218.657C251.414 218.657 251.104 218.576 250.994 218.948C250.88 219.32 250.89 219.925 250.809 220.659C250.742 221.232 250.957 222.758 250.957 222.758C250.957 222.758 251.075 223.97 251.318 224.69C251.58 225.481 252.275 226.607 252.275 226.607C252.275 226.607 252.537 227.184 252.861 227.156C253.18 227.122 253.104 226.745 253.104 226.745C253.104 226.745 252.09 222.721 252.061 222.31C251.942 220.971 251.942 219.339 251.942 219.339L251.932 219.096C251.932 219.096 251.923 218.666 251.414 218.657Z" fill="white" style="fill:white;fill-opacity:1;"/>
<path d="M252.994 206.377C252.994 206.377 252.437 206.272 251.923 207.345C251.404 208.432 251.514 208.871 251.561 208.919C251.599 208.967 252.009 208.957 252.666 207.951C253.319 206.954 253.171 206.572 253.171 206.572C253.171 206.572 253.132 206.377 252.994 206.377Z" fill="white" style="fill:white;fill-opacity:1;"/>
<path d="M268.321 217.503C268.321 217.503 268.992 218.509 267.707 218.275C266.416 218.042 263.706 215.9 262.601 215.324C261.51 214.746 259.714 214.565 260.467 213.888C260.605 213.774 260.643 213.663 260.857 213.655C261.081 213.645 261.825 213.935 261.872 213.969C261.91 213.987 263.82 214.779 263.891 214.798C263.958 214.827 265.029 215.285 265.791 215.733C266.553 216.185 267.791 217.053 267.791 217.053L268.321 217.503Z" fill="white" style="fill:white;fill-opacity:1;"/>
<path d="M304.046 248.301C304.398 249.407 299.979 245.964 297.611 244.137C291.339 239.301 283.661 229.387 284.618 228.51C285.409 227.789 288.557 232.33 293.173 237.332C298.107 242.664 303.841 247.643 304.046 248.301Z" fill="white" style="fill:white;fill-opacity:1;"/>
<path d="M322.497 243.56C321.125 245.024 320.64 246.899 321.43 248.3C322.201 249.664 322.44 246.307 323.297 245.32C324.04 244.456 324.497 244.595 325.716 243.727C327.793 242.263 324.231 241.696 322.497 243.56Z" fill="white" style="fill:white;fill-opacity:1;"/>
<path d="M314.648 212.266C313.705 212.114 313.733 213.549 313.867 214.565C314.496 219.114 316.535 222.619 319.258 225.92C320.916 227.932 325.46 231.518 325.983 230.942C326.174 230.737 321.658 227.241 318.782 222.749C316.743 219.563 315.657 216.869 315.4 214.241C315.372 213.907 315.448 212.395 314.648 212.266Z" fill="white" style="fill:white;fill-opacity:1;"/>
<path d="M297.054 144.837C295.006 145.948 291.453 146.926 291.453 146.926C291.453 146.926 291.291 147.279 291.749 147.241C294.792 146.998 295.954 146.616 297.574 145.901C299.193 145.2 300.37 143.254 300.37 143.254C300.37 143.254 301.027 142.043 299.808 143.04C299.426 143.345 298.178 144.222 297.054 144.837Z" fill="white" style="fill:white;fill-opacity:1;"/>
<path d="M321.764 137.021C321.764 137.021 321.068 136.868 320.601 137.159C320.134 137.455 320.268 137.689 320.268 137.689C320.268 137.689 320.992 138.242 321.506 138.333C322.02 138.409 323.125 138.891 323.088 138.519C323.04 138.138 322.421 137.456 322.201 137.27C322.002 137.073 321.764 137.021 321.764 137.021Z" fill="white" style="fill:white;fill-opacity:1;"/>
<path d="M310.133 158.387C310.252 158.63 312.328 158.062 313.129 157.613C313.753 157.261 314 156.078 314 156.078C314 156.078 314.172 154.933 313.906 155.376C312.719 157.318 310.018 158.138 310.133 158.387Z" fill="white" style="fill:white;fill-opacity:1;"/>
<path d="M310.066 153.05C310.905 151.438 307.766 154.724 306.166 155.572C305.189 156.088 303.598 156.774 303.598 156.774C303.598 156.774 303.179 157.298 303.765 157.251C304.351 157.212 305.842 157.718 307.052 156.783C307.338 156.554 308.595 154.723 308.595 154.723C308.595 154.723 309.666 153.812 310.066 153.05Z" fill="white" style="fill:white;fill-opacity:1;"/>
<path d="M309.58 159.907C309.647 160.17 313.166 160.083 314.048 159.817C314.743 159.626 315.124 158.396 315.124 158.396C315.124 158.396 315.543 157.318 315.181 157.68C313.586 159.312 309.519 159.645 309.58 159.907Z" fill="white" style="fill:white;fill-opacity:1;"/>
<path d="M253.051 192.189C253.051 192.189 252.518 191.994 251.856 192.99C251.199 193.982 248.237 198.489 248.76 199.151C249.384 199.933 251.951 195.126 252.733 194.23C253.523 193.319 253.199 192.403 253.199 192.403C253.199 192.403 253.19 192.198 253.051 192.189Z" fill="white" style="fill:white;fill-opacity:1;"/>
<path d="M317.582 273.444C317.258 274.941 317.639 278.003 318.154 278.603C319.411 280.12 318.639 276.229 318.82 274.864C318.972 273.596 319.125 273.157 319.754 271.802C320.878 269.361 318.24 270.257 317.582 273.444Z" fill="white" style="fill:white;fill-opacity:1;"/>
<path d="M306.77 143.216C306.77 143.216 305.794 143.245 305.032 143.664C304.26 144.084 304.07 144.681 304.07 144.681C304.07 144.681 303.912 145.11 304.018 145.343C304.241 145.854 305.299 145.081 306.037 145.333C306.632 145.548 306.918 145.725 307.375 146.273C307.775 146.75 308.475 147.437 308.914 147.045C309.366 146.664 309.2 145.686 309.2 145.686C309.2 145.686 308.68 144.093 308 143.645C307.313 143.188 306.77 143.216 306.77 143.216Z" fill="white" style="fill:white;fill-opacity:1;"/>
<path d="M290.549 154.418C290.549 154.418 290.001 154.504 290.129 155.172C290.258 155.825 290.616 155.725 290.616 155.725C290.616 155.725 291.749 155.238 291.682 154.557C291.601 153.87 290.549 154.418 290.549 154.418Z" fill="white" style="fill:white;fill-opacity:1;"/>
<path d="M282.628 150.861C282.628 150.861 282.033 150.885 281.614 151.623C281.204 152.358 280.961 153.121 280.961 153.121C280.961 153.121 280.766 154.085 281.108 154.39C281.456 154.69 281.837 153.766 282.337 153.403C282.637 153.188 282.823 153.093 283.133 152.873C283.557 152.582 284.247 152.954 284.199 152.096C284.138 151.232 283.224 150.822 282.628 150.861Z" fill="white" style="fill:white;fill-opacity:1;"/>
<path d="M308.223 141.633C308.223 141.633 306.875 141.437 306.927 141.957C306.975 142.443 307.657 142.152 308.094 142.348C308.523 142.543 308.809 142.62 309.151 142.935C309.404 143.158 309.375 143.597 309.685 143.607C310.114 143.617 310.028 143.44 310.028 143.44C310.028 143.44 309.637 142.276 309.128 141.948C308.623 141.613 308.223 141.633 308.223 141.633Z" fill="white" style="fill:white;fill-opacity:1;"/>
<path d="M323.259 147.074C323.068 147.808 322.953 148.061 322.953 148.061C322.953 148.061 322.573 149.554 324.078 149.005C325.583 148.451 324.802 148.685 325.887 148.156C326.955 147.632 326.935 147.923 327.717 147.961C327.983 147.97 328.155 147.98 328.555 147.904C328.898 147.827 328.755 147.427 327.993 147.221C327.174 147.007 326.174 147.055 325.012 147.045C324.326 147.036 323.459 146.34 323.259 147.074Z" fill="white" style="fill:white;fill-opacity:1;"/>
<path d="M323.926 141.557C323.926 141.557 323.24 141.399 322.763 141.695C322.297 141.986 322.44 142.219 322.44 142.219C322.44 142.219 323.154 142.787 323.678 142.863C324.193 142.954 325.297 143.431 325.259 143.049C325.202 142.677 324.593 141.986 324.373 141.8C324.155 141.614 323.926 141.557 323.926 141.557Z" fill="white" style="fill:white;fill-opacity:1;"/>
<path d="M326.575 151.92C326.575 151.92 325.84 151.772 325.336 152.053C324.84 152.33 324.973 152.554 324.973 152.554C324.973 152.554 325.755 153.079 326.307 153.16C326.86 153.236 328.041 153.684 327.993 153.327C327.946 152.974 327.279 152.32 327.059 152.144C326.84 151.967 326.575 151.92 326.575 151.92Z" fill="white" style="fill:white;fill-opacity:1;"/>
<path d="M326.803 155.677C326.803 155.677 326.021 155.501 325.488 155.825C324.955 156.145 325.116 156.403 325.116 156.403C325.116 156.403 325.927 157.018 326.517 157.104C327.098 157.194 328.356 157.709 328.298 157.299C328.251 156.889 327.546 156.145 327.298 155.945C327.07 155.734 326.803 155.677 326.803 155.677Z" fill="white" style="fill:white;fill-opacity:1;"/>
<path d="M327.155 159.34C327.155 159.34 326.307 159.145 325.735 159.507C325.154 159.869 325.335 160.16 325.335 160.16C325.335 160.16 326.211 160.847 326.84 160.952C327.479 161.053 328.84 161.639 328.784 161.176C328.727 160.718 327.964 159.869 327.698 159.645C327.45 159.407 327.155 159.34 327.155 159.34Z" fill="white" style="fill:white;fill-opacity:1;"/>
<path d="M327.079 163.871C327.079 163.871 326.231 163.689 325.659 164.047C325.078 164.4 325.241 164.691 325.241 164.691C325.241 164.691 326.135 165.377 326.764 165.483C327.393 165.583 328.755 166.169 328.698 165.711C328.632 165.249 327.879 164.4 327.622 164.176C327.355 163.942 327.079 163.871 327.079 163.871Z" fill="white" style="fill:white;fill-opacity:1;"/>
<path d="M326.46 172.703C326.46 172.703 325.602 172.517 325.031 172.88C324.459 173.237 324.631 173.524 324.631 173.524C324.631 173.524 325.507 174.215 326.136 174.316C326.774 174.411 328.136 175.007 328.079 174.539C328.022 174.082 327.261 173.237 326.993 173.004C326.736 172.77 326.46 172.703 326.46 172.703Z" fill="white" style="fill:white;fill-opacity:1;"/>
<path d="M327.032 168.287C327.032 168.287 326.06 168.063 325.373 168.482C324.716 168.892 324.917 169.226 324.917 169.226C324.917 169.226 325.936 170.027 326.669 170.142C327.393 170.261 328.975 170.934 328.917 170.409C328.841 169.87 327.964 168.892 327.66 168.63C327.355 168.363 327.032 168.287 327.032 168.287Z" fill="white" style="fill:white;fill-opacity:1;"/>
<path d="M326.04 176.699C326.04 176.699 325.335 176.532 324.859 176.833C324.383 177.128 324.536 177.362 324.536 177.362C324.536 177.362 325.259 177.939 325.774 178.016C326.298 178.102 327.412 178.583 327.374 178.202C327.317 177.82 326.698 177.128 326.479 176.942C326.269 176.747 326.04 176.699 326.04 176.699Z" fill="white" style="fill:white;fill-opacity:1;"/>
<path d="M325.373 180.524C325.373 180.524 324.802 180.4 324.402 180.643C324.022 180.886 324.135 181.082 324.135 181.082C324.135 181.082 324.735 181.549 325.164 181.621C325.592 181.687 326.536 182.098 326.497 181.774C326.459 181.464 325.926 180.886 325.754 180.729C325.573 180.571 325.373 180.524 325.373 180.524Z" fill="white" style="fill:white;fill-opacity:1;"/>
<path d="M324.555 184.015C324.555 184.015 324.041 183.895 323.678 184.119C323.335 184.334 323.431 184.52 323.431 184.52C323.431 184.52 323.974 184.94 324.364 184.997C324.755 185.069 325.593 185.426 325.556 185.145C325.527 184.863 325.06 184.334 324.897 184.196C324.735 184.053 324.555 184.015 324.555 184.015Z" fill="white" style="fill:white;fill-opacity:1;"/>
<path d="M323.735 186.876C323.735 186.876 323.202 186.756 322.86 186.971C322.497 187.195 322.602 187.371 322.602 187.371C322.602 187.371 323.145 187.8 323.536 187.858C323.927 187.92 324.764 188.287 324.727 187.997C324.698 187.716 324.231 187.196 324.06 187.057C323.907 186.914 323.735 186.876 323.735 186.876Z" fill="white" style="fill:white;fill-opacity:1;"/>
<path d="M322.736 190.195C322.736 190.195 322.317 190.095 322.021 190.272C321.735 190.458 321.831 190.596 321.831 190.596C321.831 190.596 322.268 190.94 322.583 190.997C322.898 191.044 323.583 191.341 323.546 191.101C323.517 190.877 323.136 190.458 323.012 190.339C322.878 190.224 322.736 190.195 322.736 190.195Z" fill="white" style="fill:white;fill-opacity:1;"/>
<path d="M321.545 193.3C321.545 193.3 321.183 193.213 320.935 193.366C320.688 193.523 320.764 193.652 320.764 193.652C320.764 193.652 321.145 193.943 321.412 193.981C321.679 194.034 322.269 194.287 322.24 194.081C322.222 193.886 321.888 193.523 321.783 193.428C321.658 193.328 321.545 193.3 321.545 193.3Z" fill="white" style="fill:white;fill-opacity:1;"/>
<path d="M320.316 196.252C320.316 196.252 319.944 196.171 319.697 196.329C319.458 196.476 319.544 196.6 319.544 196.6C319.544 196.6 319.906 196.896 320.182 196.944C320.458 196.982 321.039 197.234 321.011 197.044C320.992 196.834 320.658 196.476 320.554 196.376C320.44 196.28 320.316 196.252 320.316 196.252Z" fill="white" style="fill:white;fill-opacity:1;"/>
<path d="M240.578 211.27C240.578 211.27 239.964 212.461 240.268 213.115C240.569 213.774 241.397 212.071 241.397 212.071C241.397 212.071 242.254 210.373 241.907 210.063C241.554 209.748 241.35 210.626 240.578 211.27Z" fill="white" style="fill:white;fill-opacity:1;"/>
<path d="M327.278 364.388V362.071C327.278 356.805 329.936 355.775 337.699 355.737C344.844 355.775 347.367 356.672 347.367 361.212V378.733H350.006V382.682H332.555C328.878 382.682 326.479 380.154 326.479 377.045V373.496C326.479 370.434 328.04 367.764 333.508 367.735H340.328V362.403C340.328 359.618 340.138 359.284 337.348 359.284H337.319C333.976 359.284 333.756 359.723 333.756 362.403V364.387L327.278 364.388ZM335.376 370.674C334.004 370.674 333.194 371.78 333.194 373.153V376.539C333.194 377.904 333.776 378.99 335.376 379.01H337.833C339.186 379.01 340.291 378.59 340.291 376.539L340.31 370.674H337.985C337.929 370.674 335.376 370.674 335.376 370.674Z" fill="black" style="fill:black;fill-opacity:1;"/>
<path d="M310.681 362.338V356.214H300.946V359.858H303.541V378.724H300.946V382.682H313.139V378.724H310.681V368.614C310.681 367.67 316.42 360.412 316.42 361.25V371.293H323.165V359.991C323.165 357.407 321.478 355.738 318.401 355.738C314.743 355.738 312.271 360.344 310.681 362.338Z" fill="black" style="fill:black;fill-opacity:1;"/>
<path d="M388.28 378.704V356.213H378.345V359.857H381.127V378.704H378.345V382.682H390.89V378.704H388.28Z" fill="black" style="fill:black;fill-opacity:1;"/>
<path d="M285.633 362.338V356.214H275.898V359.858H278.494V378.724H275.898V382.682H288.082V378.724H285.633V368.614C285.633 367.67 291.368 360.412 291.368 361.25V371.293H298.107V359.991C298.107 357.407 296.43 355.738 293.349 355.738C289.7 355.738 287.224 360.344 285.633 362.338Z" fill="black" style="fill:black;fill-opacity:1;"/>
<path fill-rule="evenodd" clip-rule="evenodd" d="M272.174 374.012H265.344V375.996C265.344 378.686 264.896 378.8 261.567 378.838H261.519C257.704 378.857 257.919 378.476 257.961 375.996V371.293H272.173V361.078C272.173 357.377 269.382 355.822 262.019 355.794H260.962C253.013 355.832 250.898 357.645 250.898 362.223V377.178C250.898 382.214 253.87 383.063 261.109 383.264H261.9C269.802 383.082 272.173 382.538 272.173 377.836L272.174 374.012ZM258.038 361.459C258.038 360.067 258.457 359.38 260.048 359.361H263.044C264.282 359.361 264.973 359.914 264.973 360.906V368.565H258.038L258.038 361.459Z" fill="black" style="fill:black;fill-opacity:1;"/>
<path d="M384.68 350.778V345.989" stroke="black" style="stroke:black;stroke-opacity:1;" stroke-width="0.74" stroke-miterlimit="10"/>
<path d="M362.39 362.338V356.214H352.646V359.858H355.237V378.724H352.646V382.682H364.838V378.724H362.39V368.614C362.39 367.67 368.115 360.412 368.115 361.25V371.293H374.869V359.991C374.869 357.407 373.172 355.738 370.086 355.738C366.448 355.738 363.97 360.344 362.39 362.338Z" fill="black" style="fill:black;fill-opacity:1;"/>
<path d="M242.383 369.815V366.286H238.587V378.733H245.164V382.682H225.88V378.733H231.01V350.777H226.981V345.97H377.182V350.777H238.587V362.003H242.383V358.684H246.751V369.815H242.383Z" fill="black" style="fill:black;fill-opacity:1;"/>
<path d="M388.184 345.798H381.021V350.53H388.184V345.798Z" fill="black" style="fill:black;fill-opacity:1;"/>
</g>
<defs>
<clipPath id="clip0_331_543">
<rect width="213" height="341" fill="white" style="fill:white;fill-opacity:1;" transform="translate(203 62)"/>
</clipPath>
</defs>
</svg>
