<svg width="620" height="465" viewBox="0 0 620 465" fill="none" xmlns="http://www.w3.org/2000/svg">
<g clip-path="url(#clip0_228_763)">
<mask id="mask0_228_763" style="mask-type:alpha" maskUnits="userSpaceOnUse" x="100" y="134" width="420" height="155">
<path fill-rule="evenodd" clip-rule="evenodd" d="M385.848 184.308C387.516 188.11 388.35 192.172 388.35 196.495C388.35 192.172 389.157 188.11 390.772 184.308C392.438 180.507 394.679 177.2 397.492 174.387C400.306 171.575 403.614 169.362 407.417 167.747C411.22 166.081 415.284 165.248 419.608 165.248C415.284 165.248 411.22 164.44 407.417 162.826C403.614 161.159 400.306 158.92 397.492 156.108C394.679 153.295 392.438 149.988 390.772 146.187C389.157 142.385 388.35 138.323 388.35 134C388.35 138.323 387.516 142.385 385.848 146.187C384.234 149.988 382.019 153.295 379.206 156.108C376.393 158.92 373.084 161.159 369.281 162.826C365.478 164.44 361.415 165.248 357.09 165.248C361.415 165.248 365.478 166.081 369.281 167.747C373.084 169.362 376.393 171.575 379.206 174.387C382.019 177.2 384.234 180.507 385.848 184.308ZM131.931 284.289C138.308 286.914 145.107 288.226 152.328 288.226C159.643 288.226 166.301 287.055 172.303 284.711C178.304 282.368 183.509 279.04 187.916 274.728C192.324 270.416 195.747 265.307 198.185 259.401C200.623 253.401 201.842 246.839 201.842 239.715V239.574C201.842 238.262 201.749 237.043 201.561 235.918C201.467 234.793 201.327 233.622 201.139 232.403H152.609V244.074H189.182C188.807 249.699 187.494 254.573 185.244 258.698C183.087 262.729 180.32 266.056 176.944 268.682C173.662 271.306 169.864 273.274 165.551 274.587C161.33 275.805 156.923 276.416 152.328 276.416C147.264 276.416 142.341 275.477 137.558 273.603C132.775 271.728 128.508 269.01 124.757 265.447C121.1 261.885 118.193 257.619 116.036 252.651C113.879 247.589 112.801 241.918 112.801 235.637C112.801 229.356 113.832 223.732 115.895 218.764C118.052 213.701 120.959 209.436 124.617 205.968C128.274 202.406 132.494 199.687 137.277 197.812C142.153 195.937 147.17 195 152.328 195C156.173 195 159.83 195.515 163.3 196.547C166.77 197.484 169.958 198.843 172.865 200.624C175.866 202.406 178.445 204.562 180.602 207.093L189.323 198.093C185.103 193.313 179.711 189.61 173.147 186.985C166.676 184.36 159.736 183.048 152.328 183.048C145.201 183.048 138.449 184.36 132.072 186.985C125.789 189.61 120.209 193.313 115.333 198.093C110.55 202.874 106.799 208.452 104.079 214.826C101.36 221.201 100 228.138 100 235.637C100 243.137 101.36 250.074 104.079 256.448C106.799 262.822 110.55 268.4 115.333 273.181C120.115 277.962 125.648 281.665 131.931 284.289ZM227.048 283.305C232.486 286.586 238.676 288.226 245.615 288.226C253.492 288.226 260.103 286.446 265.449 282.883C270.795 279.322 274.874 274.822 277.687 269.385L266.996 264.322C265.027 267.885 262.307 270.885 258.838 273.322C255.461 275.759 251.242 276.977 246.177 276.977C242.238 276.977 238.441 275.993 234.783 274.025C231.127 272.056 228.126 269.103 225.781 265.167C223.756 261.764 222.605 257.592 222.33 252.651H278.813C278.907 252.183 278.953 251.573 278.953 250.824C279.047 250.074 279.093 249.37 279.093 248.714C279.093 241.59 277.687 235.262 274.874 229.731C272.154 224.201 268.215 219.888 263.058 216.795C257.899 213.608 251.758 212.014 244.63 212.014C237.596 212.014 231.455 213.795 226.203 217.357C220.951 220.826 216.872 225.466 213.965 231.278C211.152 237.09 209.745 243.418 209.745 250.261C209.745 257.573 211.245 264.088 214.246 269.807C217.341 275.525 221.608 280.025 227.048 283.305ZM223.047 242.387C223.489 240.3 224.12 238.331 224.937 236.481C226.719 232.45 229.298 229.263 232.674 226.919C236.143 224.482 240.176 223.263 244.771 223.263C248.615 223.263 251.851 223.919 254.477 225.232C257.103 226.45 259.259 228.044 260.948 230.013C262.635 231.981 263.855 234.09 264.605 236.34C265.355 238.496 265.777 240.512 265.871 242.387H223.047ZM289.851 214.264V285.977H302.511V246.043C302.511 242.105 303.308 238.403 304.903 234.934C306.497 231.466 308.701 228.7 311.514 226.638C314.327 224.482 317.516 223.404 321.079 223.404C326.049 223.404 329.894 224.857 332.614 227.763C335.427 230.575 336.834 235.403 336.834 242.246V285.977H349.353V245.761C349.353 241.824 350.15 238.168 351.745 234.793C353.338 231.325 355.542 228.56 358.356 226.497C361.169 224.435 364.357 223.404 367.921 223.404C372.985 223.404 376.876 224.81 379.597 227.622C382.41 230.435 383.816 235.262 383.816 242.105V285.977H396.336V239.996C396.336 231.653 394.272 224.904 390.147 219.748C386.114 214.592 379.783 212.014 371.156 212.014C365.436 212.014 360.512 213.326 356.387 215.951C352.26 218.576 348.978 221.904 346.54 225.935C344.851 221.81 342.085 218.482 338.24 215.951C334.489 213.326 329.941 212.014 324.596 212.014C321.595 212.014 318.594 212.623 315.593 213.842C312.686 214.967 310.107 216.514 307.856 218.482C305.606 220.357 303.825 222.466 302.511 224.81H301.948V214.264H289.851ZM407.729 214.264V285.977H420.249V214.264H407.729ZM407.589 199.078C409.37 200.765 411.481 201.609 413.919 201.609C416.45 201.609 418.561 200.765 420.249 199.078C421.937 197.297 422.781 195.187 422.781 192.75C422.781 190.219 421.937 188.11 420.249 186.422C418.561 184.641 416.45 183.751 413.919 183.751C411.481 183.751 409.37 184.641 407.589 186.422C405.9 188.11 405.057 190.219 405.057 192.75C405.057 195.187 405.9 197.297 407.589 199.078ZM432.006 214.264V285.977H444.666V246.043C444.666 242.199 445.463 238.59 447.058 235.215C448.746 231.747 451.043 228.935 453.95 226.778C456.857 224.529 460.281 223.404 464.219 223.404C469.471 223.404 473.691 224.857 476.879 227.763C480.067 230.575 481.662 235.403 481.662 242.246V285.977H494.321V239.996C494.321 231.559 492.071 224.81 487.57 219.748C483.068 214.592 476.457 212.014 467.736 212.014C462.578 212.014 457.889 213.28 453.669 215.811C449.45 218.342 446.401 221.342 444.526 224.81H443.963V214.264H432.006ZM504.948 214.264V285.977H517.468V214.264H504.948ZM504.808 199.078C506.589 200.765 508.7 201.609 511.138 201.609C513.669 201.609 515.78 200.765 517.468 199.078C519.156 197.297 520 195.187 520 192.75C520 190.219 519.156 188.11 517.468 186.422C515.78 184.641 513.669 183.751 511.138 183.751C508.7 183.751 506.589 184.641 504.808 186.422C503.121 188.11 502.276 190.219 502.276 192.75C502.276 195.187 503.121 197.297 504.808 199.078Z" fill="white" style="fill:white;fill-opacity:1;"/>
</mask>
<g mask="url(#mask0_228_763)">
<path d="M922.712 -421.855H-93.2122V414.564H922.712V-421.855Z" fill="url(#paint0_linear_228_763)"/>
</g>
</g>
<defs>
<linearGradient id="paint0_linear_228_763" x1="29.9127" y1="293.2" x2="533.373" y2="170.978" gradientUnits="userSpaceOnUse">
<stop stop-color="#439DDF" style="stop-color:#439DDF;stop-color:color(display-p3 0.2627 0.6157 0.8745);stop-opacity:1;"/>
<stop offset="0.524208" stop-color="#4F87ED" style="stop-color:#4F87ED;stop-color:color(display-p3 0.3098 0.5294 0.9294);stop-opacity:1;"/>
<stop offset="0.781452" stop-color="#9476C5" style="stop-color:#9476C5;stop-color:color(display-p3 0.5804 0.4627 0.7725);stop-opacity:1;"/>
<stop offset="0.888252" stop-color="#BC688E" style="stop-color:#BC688E;stop-color:color(display-p3 0.7373 0.4078 0.5569);stop-opacity:1;"/>
<stop offset="1" stop-color="#D6645D" style="stop-color:#D6645D;stop-color:color(display-p3 0.8392 0.3922 0.3647);stop-opacity:1;"/>
</linearGradient>
<clipPath id="clip0_228_763">
<rect width="420" height="155" fill="white" style="fill:white;fill-opacity:1;" transform="translate(100 134)"/>
</clipPath>
</defs>
</svg>
