<svg width="620" height="465" viewBox="0 0 620 465" fill="none" xmlns="http://www.w3.org/2000/svg">
<g clip-path="url(#clip0_228_721)">
<path d="M137.756 310.935C124.586 310.411 113.811 306.796 105.386 300.083C103.778 298.8 99.9469 294.955 98.6615 293.333C95.245 289.024 92.9223 284.831 91.373 280.178C86.6058 265.855 89.0593 247.061 98.3909 226.435C106.381 208.776 118.709 191.262 140.218 167.006C143.387 163.436 152.822 152.998 152.883 152.998C152.906 152.998 152.392 153.891 151.744 154.979C146.152 164.375 141.366 175.442 138.759 185.024C134.572 200.398 135.077 213.592 140.239 223.822C143.8 230.87 149.904 236.975 156.769 240.35C168.786 246.256 186.38 246.745 207.867 241.78C209.346 241.436 282.651 221.918 370.766 198.405C458.882 174.891 530.989 155.667 531 155.682C531.025 155.703 326.282 243.578 219.997 289.167C203.165 296.384 198.664 298.207 190.751 300.994C170.522 308.119 152.403 311.519 137.756 310.935Z" fill="black" style="fill:black;fill-opacity:1;"/>
</g>
<defs>
<clipPath id="clip0_228_721">
<rect width="442" height="158" fill="white" style="fill:white;fill-opacity:1;" transform="translate(89 153)"/>
</clipPath>
</defs>
</svg>
