<svg width="620" height="465" viewBox="0 0 620 465" fill="none" xmlns="http://www.w3.org/2000/svg">
<g clip-path="url(#clip0_228_749)">
<path d="M230.784 230.805C230.784 249.444 242.743 262.44 259.315 262.44C275.887 262.44 287.847 249.444 287.847 230.805C287.847 212.166 275.887 199.17 259.315 199.17C242.743 199.17 230.784 212.166 230.784 230.805ZM276.913 230.805C276.913 244.143 269.651 252.779 259.315 252.779C248.979 252.779 241.718 244.143 241.718 230.805C241.718 217.467 248.979 208.832 259.315 208.832C269.651 208.832 276.913 217.467 276.913 230.805Z" fill="black" style="fill:black;fill-opacity:1;"/>
<path d="M318.638 262.44C331.196 262.44 338.371 251.838 338.371 239.099C338.371 226.359 331.196 215.757 318.638 215.757C312.83 215.757 308.558 218.066 305.739 221.4V216.612H295.489V276.89H305.739V256.797C308.558 260.132 312.83 262.44 318.638 262.44ZM305.483 237.816C305.483 229.352 310.267 224.735 316.588 224.735C324.02 224.735 328.035 230.549 328.035 239.099C328.035 247.649 324.02 253.463 316.588 253.463C310.267 253.463 305.483 248.76 305.483 240.467V237.816Z" fill="black" style="fill:black;fill-opacity:1;"/>
<path d="M366.113 262.44C375.082 262.44 382.172 257.738 385.333 249.872L376.534 246.537C375.168 251.154 371.153 253.719 366.113 253.719C359.535 253.719 354.922 249.017 354.153 241.322H385.589V237.902C385.589 225.59 378.67 215.757 365.686 215.757C352.701 215.757 344.33 225.932 344.33 239.099C344.33 252.95 353.299 262.44 366.113 262.44ZM365.6 224.393C372.092 224.393 375.168 228.668 375.253 233.627H354.666C356.203 227.556 360.304 224.393 365.6 224.393Z" fill="black" style="fill:black;fill-opacity:1;"/>
<path d="M393.281 261.5H403.532V235.166C403.532 228.753 408.23 225.333 412.843 225.333C418.481 225.333 420.702 229.352 420.702 234.909V261.5H430.953V231.917C430.953 222.255 425.315 215.757 415.918 215.757C410.109 215.757 406.095 218.408 403.532 221.4V216.612H393.281V261.5Z" fill="black" style="fill:black;fill-opacity:1;"/>
<path d="M460.976 200.111L437.74 261.5H448.589L453.8 247.478H480.282L485.578 261.5H496.597L473.362 200.111H460.976ZM466.955 212.252L476.694 237.902H457.388L466.955 212.252Z" fill="black" style="fill:black;fill-opacity:1;"/>
<path d="M514.195 200.289H503.26V261.678H514.195V200.289Z" fill="black" style="fill:black;fill-opacity:1;"/>
<path d="M205.733 222.658C208.317 214.895 207.427 206.392 203.295 199.331C197.081 188.501 184.587 182.929 172.386 185.551C166.958 179.431 159.159 175.95 150.984 176C138.512 175.972 127.446 184.009 123.609 195.886C115.597 197.528 108.681 202.548 104.634 209.662C98.3734 220.464 99.8007 234.079 108.165 243.342C105.581 251.105 106.471 259.608 110.603 266.669C116.818 277.499 129.311 283.071 141.512 280.449C146.937 286.569 154.739 290.05 162.915 289.996C175.394 290.029 186.463 281.984 190.3 270.096C198.312 268.454 205.228 263.434 209.275 256.32C215.528 245.519 214.098 231.913 205.737 222.651L205.733 222.658ZM162.922 282.547C157.928 282.554 153.091 280.805 149.257 277.603C149.432 277.51 149.734 277.342 149.93 277.221L172.61 264.111C173.771 263.452 174.482 262.216 174.475 260.88V228.878L184.061 234.418C184.164 234.468 184.231 234.568 184.246 234.682V261.183C184.231 272.968 174.696 282.522 162.922 282.547ZM117.063 262.943C114.561 258.618 113.661 253.549 114.518 248.629C114.686 248.728 114.981 248.91 115.191 249.031L137.871 262.141C139.021 262.815 140.445 262.815 141.598 262.141L169.286 246.139V257.218C169.293 257.332 169.239 257.442 169.151 257.514L146.225 270.763C136.013 276.648 122.972 273.149 117.067 262.943H117.063ZM111.094 213.392C113.586 209.06 117.519 205.747 122.203 204.026C122.203 204.222 122.192 204.568 122.192 204.81V231.034C122.185 232.366 122.897 233.602 124.054 234.261L151.742 250.26L142.157 255.8C142.061 255.864 141.939 255.875 141.833 255.829L118.904 242.569C108.713 236.662 105.218 223.613 111.091 213.396L111.094 213.392ZM189.848 231.735L162.16 215.733L171.745 210.196C171.841 210.132 171.962 210.122 172.069 210.168L194.998 223.417C205.206 229.32 208.705 242.391 202.807 252.608C200.312 256.933 196.383 260.246 191.702 261.97V234.963C191.713 233.631 191.005 232.398 189.852 231.735H189.848ZM199.387 217.364C199.22 217.261 198.924 217.083 198.714 216.962L176.034 203.852C174.885 203.178 173.461 203.178 172.308 203.852L144.62 219.854V208.775C144.613 208.661 144.666 208.551 144.755 208.479L167.681 195.241C177.892 189.345 190.948 192.854 196.835 203.079C199.323 207.396 200.223 212.452 199.38 217.364H199.387ZM139.409 237.111L129.82 231.571C129.717 231.522 129.649 231.422 129.635 231.308V204.806C129.642 193.007 139.206 183.446 150.994 183.453C155.981 183.453 160.807 185.206 164.641 188.398C164.466 188.49 164.167 188.658 163.968 188.779L141.288 201.889C140.128 202.548 139.416 203.78 139.423 205.116L139.409 237.104V237.111ZM144.616 225.875L156.949 218.746L169.282 225.871V240.125L156.949 247.25L144.616 240.125V225.875Z" fill="black" style="fill:black;fill-opacity:1;"/>
</g>
<defs>
<clipPath id="clip0_228_749">
<rect width="420" height="114" fill="white" style="fill:white;fill-opacity:1;" transform="translate(100 176)"/>
</clipPath>
</defs>
</svg>
