<svg width="620" height="465" viewBox="0 0 620 465" fill="none" xmlns="http://www.w3.org/2000/svg">
<path d="M528.939 197.071C521.391 187.926 508.072 182.682 492.406 182.682C475.831 182.682 460.91 188.314 450.575 197.454L452.26 186.902L447.78 185.57C441.437 183.681 434.395 182.682 427.411 182.682C415.411 182.682 403.936 186.389 394.665 192.498L397.333 183.714H325.577L324.726 186.519C318.35 183.957 311.337 182.682 303.434 182.682C288.662 182.682 272.673 188.41 264.371 199.439C263.827 198.632 263.258 197.836 262.624 197.071C255.074 187.926 241.757 182.682 226.089 182.682C210.006 182.682 195.46 187.981 185.171 196.651L189.177 172.319L184.625 171.004C176.852 168.759 168.215 167.571 159.644 167.571C128.199 167.571 99.5787 187.542 94.4884 213.032C92.3214 223.877 94.8524 234.381 101.609 242.614C107.368 249.629 115.873 254.63 125.978 257.185H94.824V296.998H253.514L253.76 296.512L253.791 296.998H272.892L275.482 292.779L274.681 296.998H317.868L318.502 293.671C322.297 296.127 327.224 297.461 332.898 297.461C337.97 297.461 342.675 296.41 346.73 294.542L346.264 296.998H406.816L406.92 296.457C409.728 297.09 412.677 297.463 415.494 297.463C417.205 297.463 418.968 297.31 420.721 297H443.807L445.521 293.367H447.059L447.529 297H518.732L522.272 278.371H520.972L521.459 275.812H522.39L525.935 257.185H523.964C525.571 255.733 526.741 253.868 527.145 251.745C527.622 249.223 526.968 246.657 525.349 244.706C524.928 244.201 524.446 243.757 523.926 243.358C529.574 237.562 533.49 230.547 535.012 222.661C536.872 212.987 534.776 204.138 528.939 197.071ZM487.744 276.978H485.558L488.857 259.657C489.608 259.56 490.357 259.452 491.099 259.334L487.744 276.978ZM436.784 220.633C436.557 221.789 436.401 222.932 436.285 224.059C431.481 227.27 426.979 228.788 422.163 228.788C418.904 228.788 416.082 227.725 414.615 225.945C413.778 224.934 413.497 223.804 413.757 222.488C414.615 218.052 420.639 214.161 426.643 214.161C430.401 214.161 433.932 215.488 437.394 218.203C437.179 219.008 436.94 219.808 436.784 220.633ZM441.647 257.183L439.303 261.043L437.353 259.952C436.07 259.232 434.692 258.677 433.272 258.195C434.312 257.948 435.283 257.669 436.129 257.362L438.863 256.37L441.55 244.6C441.914 245.105 442.259 245.623 442.661 246.109C446.716 251.018 452.558 254.772 459.612 257.18L441.647 257.183ZM465.428 258.812L464.495 263.711L463.197 258.269C463.932 258.46 464.669 258.646 465.428 258.812ZM488.275 214.675C491.201 214.675 493.453 215.452 494.62 216.862C495.691 218.16 495.653 219.816 495.424 220.98C494.493 225.78 489.561 229.133 483.414 229.133C480.425 229.133 478.062 228.344 476.927 226.97C476.143 226.018 475.909 224.684 476.235 223.001C477.031 218.864 481.424 214.675 488.275 214.675ZM353.141 260.76C352.3 260.191 351.385 259.688 350.431 259.234H353.434L353.141 260.76ZM336.62 276.973C336.233 277.318 335.602 277.549 334.872 277.592C335.245 277.271 335.831 277.006 336.62 276.973ZM331.925 215.124L328.361 226.845C328.132 223.714 327.156 220.869 325.445 218.338C324.738 217.301 323.897 216.357 322.971 215.459L331.925 215.124ZM229.105 220.977C228.176 225.78 223.237 229.133 217.095 229.133C214.108 229.133 211.743 228.344 210.608 226.97C209.821 226.018 209.59 224.684 209.916 223.001C210.717 218.862 215.11 214.675 221.959 214.675C224.884 214.675 227.139 215.452 228.304 216.862C229.372 218.16 229.329 219.818 229.105 220.977ZM270.288 259.088L270.172 259.334L270.149 259.067C270.196 259.071 270.241 259.081 270.288 259.088ZM323.311 243.483L319.149 257.183H303.167C311.337 254.489 318.662 249.972 323.311 243.483ZM325.045 259.234H325.936C325.606 259.374 325.284 259.515 324.965 259.664L325.045 259.234ZM153.1 223.301C148.539 223.301 144.588 221.804 142.53 219.298C141.339 217.849 140.939 216.243 141.308 214.392C142.499 208.43 150.456 203.394 158.682 203.394C164.235 203.394 169.38 205.477 174.404 209.729C173.076 212.208 172.02 214.805 171.252 217.514C165.115 221.438 159.318 223.301 153.1 223.301ZM247.108 251.528L252.3 253.863C255.168 255.152 258.356 256.255 261.693 257.185H252.035L251 259.256L250.867 257.185H234.169C238.839 255.752 243.175 253.846 247.108 251.528ZM373.647 276.978L377.414 257.183H359.132L371.943 215.001L375.849 215.15C375.128 217.077 374.521 219.039 374.126 221.062C372.304 230.476 374.519 239.562 380.37 246.643C384.224 251.31 389.518 254.857 395.712 257.18H379.602L375.833 276.976L373.647 276.978ZM170.018 255.702L172.771 254.734L175.177 244.52C175.562 245.056 175.921 245.599 176.347 246.111C180.4 251.02 186.241 254.774 193.293 257.183H164.136C166.341 256.769 168.369 256.281 170.018 255.702ZM500.488 257.183C502.856 256.453 505.137 255.608 507.327 254.647C507.649 255.416 508.039 256.16 508.58 256.814C508.696 256.951 508.847 257.055 508.967 257.183H500.488Z" fill="white" style="fill:white;fill-opacity:1;"/>
<path d="M245.86 262.514L246.961 279.913H247.24C247.809 278.135 248.443 276.279 249.331 274.539L255.334 262.514H265.087L266.561 279.913H266.84C267.348 278.21 267.92 276.43 268.7 274.77L274.561 262.514H287.797L269.898 291.666H258.798L257.82 275.814H257.402C256.976 277.325 256.603 278.791 255.913 280.222L250.206 291.666H239.382L232.669 262.514H245.86Z" fill="#005DAA" style="fill:#005DAA;fill:color(display-p3 0.0000 0.3647 0.6667);fill-opacity:1;"/>
<path d="M286.868 262.514H299.128L297.261 272.334H305.062L306.932 262.514H319.192L313.648 291.666H301.388L303.314 281.537H295.51L293.584 291.666H281.324L286.868 262.514Z" fill="#005DAA" style="fill:#005DAA;fill:color(display-p3 0.0000 0.3647 0.6667);fill-opacity:1;"/>
<path d="M355.1 277.167C353.321 286.524 343.568 292.129 332.891 292.129C322.207 292.129 314.586 286.522 316.368 277.167C318.109 268.004 327.976 262.049 338.61 262.049C349.244 262.049 356.84 268.004 355.1 277.167ZM329.157 277.32C328.522 280.645 330.783 282.928 334.638 282.928C338.494 282.928 341.621 280.645 342.256 277.32C342.843 274.225 340.829 271.637 336.788 271.637C332.742 271.64 329.743 274.227 329.157 277.32ZM357.889 262.514H370.615L366.848 282.31H377.532L375.75 291.664H352.343L357.889 262.514ZM407.636 281.226L408.203 281.653C410.198 283.122 412.71 284.321 415.638 284.321C416.893 284.321 418.97 283.894 419.221 282.581C419.471 281.268 417.822 281.153 416.702 280.957L414.218 280.572C409.385 279.835 405.675 277.398 406.537 272.839C407.858 265.919 416.16 262.051 423.777 262.051C427.771 262.051 431.289 262.866 434.392 264.604L429.536 272.067C427.589 270.83 425.311 269.862 422.569 269.862C421.456 269.862 419.762 270.206 419.54 271.406C419.332 272.487 420.88 272.643 421.82 272.837L424.599 273.377C429.791 274.386 433.239 276.78 432.301 281.729C430.973 288.689 422.702 292.129 415.132 292.129C410.723 292.129 405.802 291.124 402.173 289.461L407.636 281.226Z" fill="#005DAA" style="fill:#005DAA;fill:color(display-p3 0.0000 0.3647 0.6667);fill-opacity:1;"/>
<path d="M451.355 281.11L450.847 275.967C450.71 274.73 450.72 273.455 450.727 272.215H450.261L446.251 281.11H451.355ZM440.277 291.666H426.809L444.523 262.514H458.594L465.541 291.666H452.074L451.606 288.033H441.995L440.277 291.666Z" fill="#005DAA" style="fill:#005DAA;fill:color(display-p3 0.0000 0.3647 0.6667);fill-opacity:1;"/>
<path d="M470.024 262.514H482.75L478.983 282.309H489.667L487.885 291.664H464.48L470.024 262.514ZM495.795 262.514H519.344L517.827 270.48H507.096L506.566 273.264H516.364L514.925 280.843H505.125L504.584 283.702H515.686L514.166 291.666H490.249L495.795 262.514Z" fill="#005DAA" style="fill:#005DAA;fill:color(display-p3 0.0000 0.3647 0.6667);fill-opacity:1;"/>
<path d="M323.138 210.121L339.206 209.519L325.724 253.905H354.552L368.029 209.519L383.735 210.121L390.135 189.046H329.533L323.138 210.121ZM263.447 221.645C259.415 242.459 237.329 254.935 213.13 254.935C188.933 254.935 171.675 242.461 175.706 221.645C179.653 201.257 201.997 188.014 226.089 188.014C250.18 188.014 267.393 201.26 263.447 221.645ZM204.674 221.99C203.245 229.387 208.366 234.464 217.093 234.464C225.825 234.464 232.91 229.39 234.342 221.99C235.675 215.11 231.109 209.349 221.956 209.349C212.804 209.344 206.007 215.11 204.674 221.99Z" fill="#E31837" style="fill:#E31837;fill:color(display-p3 0.8902 0.0941 0.2157);fill-opacity:1;"/>
<path d="M254.488 248.999C262.714 252.694 273.854 254.935 283.848 254.935C300.998 254.935 319.733 247.28 322.729 231.796C324.861 220.786 317.06 215.452 305.287 213.216L298.996 212.012C296.869 211.58 293.36 211.238 293.825 208.827C294.341 206.161 298.174 205.385 300.7 205.385C306.903 205.385 312.067 207.536 316.476 210.289L327.475 193.688C320.437 189.818 312.478 188.014 303.429 188.014C286.176 188.014 267.36 196.615 264.38 212.012C262.414 222.163 270.834 227.581 281.773 229.218L287.393 230.075C289.94 230.509 293.679 230.764 293.112 233.687C292.545 236.61 287.839 237.557 284.997 237.557C278.368 237.557 272.677 234.891 268.156 231.624L266.869 230.677L254.488 248.999ZM446.248 190.68C440.482 188.958 433.929 188.014 427.404 188.014C404.155 188.014 383.024 203.153 379.358 222.078C375.776 240.572 390.671 254.937 413.291 254.937C418.443 254.937 429.323 254.163 434.307 252.357L439.847 228.101C434.496 231.798 428.792 234.122 422.163 234.122C413.54 234.122 407.133 228.616 408.518 221.48C409.884 214.425 418.018 208.837 426.643 208.837C433.166 208.837 438.367 211.847 442.318 215.377L446.248 190.68ZM492.406 188.014C468.316 188.014 445.972 201.257 442.023 221.646C437.994 242.459 455.252 254.935 479.451 254.935C503.645 254.935 525.736 242.461 529.766 221.646C533.707 201.26 516.494 188.014 492.406 188.014ZM488.275 209.344C497.428 209.344 501.996 215.105 500.658 221.986C499.229 229.383 492.141 234.459 483.409 234.459C474.678 234.459 469.559 229.385 470.991 221.986C472.324 215.11 479.123 209.344 488.275 209.344ZM183.139 176.123C175.943 174.043 167.776 172.9 159.639 172.9C130.64 172.9 104.284 191.199 99.7158 214.073C95.2517 236.428 113.826 253.79 142.036 253.79C148.466 253.79 162.038 252.855 168.246 250.673L175.153 221.35C168.487 225.822 161.367 228.63 153.098 228.63C142.338 228.63 134.353 221.974 136.076 213.342C137.78 204.818 147.922 198.056 158.68 198.056C166.814 198.056 173.303 201.697 178.225 205.958L183.139 176.123Z" fill="#E31837" style="fill:#E31837;fill:color(display-p3 0.8902 0.0941 0.2157);fill-opacity:1;"/>
<path d="M512.025 250.751C512.458 248.487 514.984 246.662 517.735 246.662C520.464 246.662 522.315 248.487 521.885 250.751C521.447 253.03 518.909 254.855 516.175 254.855C513.427 254.855 511.595 253.027 512.025 250.751ZM520.599 250.751C520.944 248.928 519.635 247.731 517.527 247.731C515.386 247.731 513.656 248.928 513.313 250.751C512.966 252.576 514.237 253.785 516.381 253.785C518.486 253.785 520.252 252.579 520.599 250.751ZM518.843 252.893H517.569L516.768 251.077H515.934L515.589 252.893H514.507L515.322 248.605H517.82C518.921 248.605 519.517 248.909 519.328 249.918C519.183 250.652 518.609 251.03 517.945 251.082L518.843 252.893ZM517.264 250.258C517.806 250.258 518.271 250.258 518.361 249.799C518.432 249.422 517.964 249.422 517.423 249.422H516.251L516.097 250.258H517.264Z" fill="#E31837" style="fill:#E31837;fill:color(display-p3 0.8902 0.0941 0.2157);fill-opacity:1;"/>
<path d="M101.732 291.714H236.653L236.643 291.666H236.532L234.826 284.252H101.732V291.714ZM101.732 281.117H234.103L232.383 273.658H101.732V281.117ZM101.732 270.475H231.607L231.024 267.758L229.83 262.57H101.732V270.475ZM383.662 262.514H407.209L405.694 270.48H394.965L394.433 273.264H404.231L402.792 280.843H392.994L392.451 283.702H403.55L402.036 291.666H378.113L383.662 262.514Z" fill="#005DAA" style="fill:#005DAA;fill:color(display-p3 0.0000 0.3647 0.6667);fill-opacity:1;"/>
</svg>
