<svg width="103" height="60" viewBox="0 0 103 60" fill="none" xmlns="http://www.w3.org/2000/svg">
<g filter="url(#filter0_g_34_9)">
<circle cx="25" cy="25" r="25" transform="matrix(-1 0 0 1 98 5)" fill="hsl(307, 17%, 20%)" style="fill:hsl(307, 17%, 20%);fill-opacity:1;"/>
</g>
<path d="M5.42 36H4.04C3.17333 36 2.52667 35.78 2.1 35.34C1.68667 34.9 1.48 34.28 1.48 33.48V21.2H4.04V33.96H5.42V36ZM15.5989 36V34.26H15.4989C15.3256 34.78 15.0122 35.24 14.5589 35.64C14.1056 36.04 13.4456 36.24 12.5789 36.24C11.5122 36.24 10.6856 35.8867 10.0989 35.18C9.52557 34.46 9.23891 33.4533 9.23891 32.16V25.56H11.7989V31.9C11.7989 32.62 11.9389 33.1733 12.2189 33.56C12.4989 33.9333 12.9456 34.12 13.5589 34.12C13.8922 34.12 14.2122 34.06 14.5189 33.94C14.8389 33.82 15.0989 33.64 15.2989 33.4C15.4989 33.1467 15.5989 32.8333 15.5989 32.46V25.56H18.1589V36H15.5989ZM25.6767 36H23.1167V25.56H25.6767V27.3H25.7767C25.9901 26.74 26.3234 26.2733 26.7767 25.9C27.2434 25.5133 27.8834 25.32 28.6967 25.32C29.7634 25.32 30.5834 25.68 31.1567 26.4C31.7434 27.1067 32.0367 28.1067 32.0367 29.4V36H29.4767V29.66C29.4767 28.9267 29.3434 28.3733 29.0767 28C28.8101 27.6133 28.3701 27.42 27.7567 27.42C27.4101 27.42 27.0767 27.4867 26.7567 27.62C26.4367 27.74 26.1767 27.9267 25.9767 28.18C25.7767 28.42 25.6767 28.7267 25.6767 29.1V36ZM45.9745 36H44.5545C44.1679 36 43.8212 35.9133 43.5145 35.74C43.2212 35.5533 42.9879 35.2867 42.8145 34.94C42.6545 34.5933 42.5745 34.1867 42.5745 33.72V33.5L43.2145 34.2H42.4945C42.3212 34.8667 41.9612 35.3733 41.4145 35.72C40.8812 36.0667 40.2279 36.24 39.4545 36.24C38.3879 36.24 37.5679 35.96 36.9945 35.4C36.4212 34.8267 36.1345 34.08 36.1345 33.16C36.1345 32.44 36.3079 31.8467 36.6545 31.38C37.0145 30.9133 37.5279 30.56 38.1945 30.32C38.8612 30.08 39.6612 29.96 40.5945 29.96H42.3745V29.2C42.3745 28.6267 42.2212 28.18 41.9145 27.86C41.6079 27.5267 41.1145 27.36 40.4345 27.36C39.8345 27.36 39.3479 27.4933 38.9745 27.76C38.6145 28.0133 38.3079 28.32 38.0545 28.68L36.5345 27.32C36.9212 26.72 37.4345 26.24 38.0745 25.88C38.7145 25.5067 39.5612 25.32 40.6145 25.32C42.0145 25.32 43.0812 25.6467 43.8145 26.3C44.5612 26.94 44.9345 27.8533 44.9345 29.04V33.96H45.9745V36ZM42.3745 31.5H40.7345C40.0679 31.5 39.5679 31.6133 39.2345 31.84C38.9012 32.0533 38.7345 32.3667 38.7345 32.78V33.12C38.7345 33.5333 38.8745 33.8467 39.1545 34.06C39.4345 34.2733 39.8212 34.38 40.3145 34.38C40.7012 34.38 41.0479 34.3267 41.3545 34.22C41.6612 34.1 41.9079 33.9267 42.0945 33.7C42.2812 33.4733 42.3745 33.2 42.3745 32.88V31.5Z" fill="hsl(307, 17%, 20%)" style="fill:hsl(307, 17%, 20%);fill-opacity:1;"/>
<path d="M53.3664 36.24C52.4197 36.24 51.6197 36.06 50.9664 35.7C50.3131 35.3267 49.7531 34.8333 49.2864 34.22L50.4264 33.3C50.8264 33.7933 51.2731 34.18 51.7664 34.46C52.2597 34.74 52.8331 34.88 53.4864 34.88C54.1664 34.88 54.6931 34.7333 55.0664 34.44C55.4531 34.1467 55.6464 33.7333 55.6464 33.2C55.6464 32.8 55.5131 32.4533 55.2464 32.16C54.9931 31.8667 54.5264 31.6733 53.8464 31.58L53.0264 31.46C52.3997 31.3667 51.8331 31.2133 51.3264 31C50.8197 30.7733 50.4197 30.46 50.1264 30.06C49.8464 29.6467 49.7064 29.12 49.7064 28.48C49.7064 27.4533 50.0531 26.6933 50.7464 26.2C51.4531 25.6933 52.3331 25.44 53.3864 25.44C53.9464 25.44 54.4397 25.5067 54.8664 25.64C55.3064 25.7733 55.6997 25.9667 56.0464 26.22C56.3931 26.46 56.7064 26.7533 56.9864 27.1L55.9264 28.06C55.6997 27.74 55.3664 27.4533 54.9264 27.2C54.4864 26.9333 53.9331 26.8 53.2664 26.8C52.6131 26.8 52.1131 26.9467 51.7664 27.24C51.4197 27.52 51.2464 27.9067 51.2464 28.4C51.2464 28.8933 51.4131 29.26 51.7464 29.5C52.0931 29.7267 52.5864 29.8933 53.2264 30L54.0264 30.12C55.1731 30.2933 55.9864 30.6267 56.4664 31.12C56.9464 31.6 57.1864 32.2333 57.1864 33.02C57.1864 33.6867 57.0331 34.26 56.7264 34.74C56.4197 35.22 55.9797 35.5933 55.4064 35.86C54.8331 36.1133 54.1531 36.24 53.3664 36.24ZM66.1558 36H64.1558C63.6091 36 63.1891 35.84 62.8958 35.52C62.6024 35.2 62.4558 34.7933 62.4558 34.3V27.08H60.7558V25.68H61.7158C62.0624 25.68 62.2958 25.6133 62.4158 25.48C62.5491 25.3333 62.6158 25.0867 62.6158 24.74V22.82H64.0558V25.68H66.3158V27.08H64.0558V34.6H66.1558V36ZM79.2875 36H78.3875C77.9608 36 77.6142 35.9133 77.3475 35.74C77.0808 35.5533 76.8875 35.3 76.7675 34.98C76.6475 34.66 76.5875 34.2933 76.5875 33.88V33.74L77.2075 34.32H76.5075C76.2942 34.9467 75.9208 35.4267 75.3875 35.76C74.8675 36.08 74.2475 36.24 73.5275 36.24C72.4342 36.24 71.5808 35.96 70.9675 35.4C70.3675 34.84 70.0675 34.08 70.0675 33.12C70.0675 32.4667 70.2275 31.92 70.5475 31.48C70.8675 31.0267 71.3475 30.6867 71.9875 30.46C72.6408 30.22 73.4675 30.1 74.4675 30.1H76.5075V29.08C76.5075 28.3467 76.3075 27.7867 75.9075 27.4C75.5075 27.0133 74.8942 26.82 74.0675 26.82C73.4542 26.82 72.9342 26.96 72.5075 27.24C72.0808 27.52 71.7275 27.8933 71.4475 28.36L70.4875 27.46C70.7675 26.9133 71.2142 26.44 71.8275 26.04C72.4408 25.64 73.2142 25.44 74.1475 25.44C75.3875 25.44 76.3542 25.7467 77.0475 26.36C77.7542 26.9733 78.1075 27.8267 78.1075 28.92V34.6H79.2875V36ZM76.5075 31.3H74.3875C73.4808 31.3 72.8142 31.4333 72.3875 31.7C71.9608 31.9667 71.7475 32.3533 71.7475 32.86V33.28C71.7475 33.7867 71.9342 34.18 72.3075 34.46C72.6808 34.74 73.1742 34.88 73.7875 34.88C74.3208 34.88 74.7875 34.8 75.1875 34.64C75.6008 34.4667 75.9208 34.24 76.1475 33.96C76.3875 33.6667 76.5075 33.3467 76.5075 33V31.3ZM83.5711 36V21.2H85.1711V28.74V30.58H85.2511L86.8311 28.82L89.7511 25.68H91.6911L87.8711 29.76L92.0711 36H90.1311L86.7111 30.74L85.1711 32.32V36H83.5711Z" fill="white" style="fill:white;fill-opacity:1;"/>
<defs>
<filter id="filter0_g_34_9" x="43" y="0" width="60" height="60" filterUnits="userSpaceOnUse" color-interpolation-filters="sRGB">
<feFlood flood-opacity="0" result="BackgroundImageFix"/>
<feBlend mode="normal" in="SourceGraphic" in2="BackgroundImageFix" result="shape"/>
<feTurbulence type="fractalNoise" baseFrequency="0.02500000037252903 0.02500000037252903" numOctaves="3" seed="2310" />
<feDisplacementMap in="shape" scale="10" xChannelSelector="R" yChannelSelector="G" result="displacedImage" width="100%" height="100%" />
<feMerge result="effect1_texture_34_9">
<feMergeNode in="displacedImage"/>
</feMerge>
</filter>
</defs>
</svg>
